<?xml version="1.0" encoding="utf-8"?>
<!DOCTYPE svg PUBLIC "-//W3C//DTD SVG 1.0//EN" "http://www.w3.org/TR/2001/REC-SVG-20010904/DTD/svg10.dtd">
<svg version="1.0" xmlns="http://www.w3.org/2000/svg" width="1024px" height="1024px" viewBox="0 0 1024 1024" preserveAspectRatio="xMidYMid meet">
 <g fill="#b6352d">
  <path d="M329 881 c-1.1 -2 -0.9 -2 28 -2 24.1 0 29 0.2 29 1.4 0 2.2 -2.9 2.4 -30.2 2.6 -24.9 0.1 -25.7 0 -26.8 -2z"/>
  <path d="M390.8 882.3 c-1 -0.3 -1.8 -1.1 -1.8 -1.9 0 -1.2 6.4 -1.4 42.8 -1.4 23.5 0 45.1 -0.3 48 -0.6 5.1 -0.7 5.2 -0.6 5.2 2 l0 2.6 -46.2 -0.1 c-25.5 -0.1 -47.1 -0.4 -48 -0.6z"/>
  <path d="M540 880.4 c0 -2.6 0.1 -2.7 5.3 -2 2.8 0.3 26 0.6 51.5 0.6 38.7 0 46.2 0.2 46.2 1.4 0 0.7 -1 1.6 -2.2 2 -1.3 0.3 -24.5 0.6 -51.5 0.6 l-49.3 0 0 -2.6z"/>
  <path d="M647.8 882.3 c-1 -0.2 -1.8 -1.1 -1.8 -1.9 0 -1.2 3.9 -1.4 24.5 -1.4 20.2 0 24.5 0.2 24.5 1.4 0 0.7 -1 1.6 -2.2 2 -2.6 0.7 -42.4 0.6 -45 -0.1z"/>
  <path d="M487.5 834.2 l0 -44.7 25.3 -0.3 25.2 -0.2 0 45 0 45 -25.2 0 -25.3 0 0 -44.8z"/>
  <path d="M663 850 l0 -6 3.5 0 3.5 0 0 6 0 6 -3.5 0 -3.5 0 0 -6z"/>
  <path d="M364 831 l0 -23 12.5 0 12.5 0 0 23 0 23 -12.5 0 -12.5 0 0 -23z"/>
  <path d="M636 831 l0 -23 12.5 0 12.5 0 0 23 0 23 -12.5 0 -12.5 0 0 -23z"/>
  <path d="M663 819 l0 -16 3.5 0 3.5 0 0 16 0 16 -3.5 0 -3.5 0 0 -16z"/>
  <path d="M612.5 792.2 c-5 -0.7 -5 -0.7 -5.3 -4.6 l-0.3 -3.9 5.3 0.6 c2.9 0.4 23.6 0.7 46 0.7 l40.8 0 -1 2.6 c-0.6 1.4 -0.8 3 -0.4 3.5 0.3 0.5 -12.1 0.9 -30.9 0.9 -17.3 0 -35.4 0.2 -40.3 0.4 -4.9 0.2 -11.1 0.1 -13.9 -0.2z"/>
  <path d="M424 782.5 c0 -3.3 0.2 -3.5 3.5 -3.5 3.3 0 3.5 0.2 3.5 3.5 0 3.3 -0.2 3.5 -3.5 3.5 -3.3 0 -3.5 -0.2 -3.5 -3.5z"/>
  <path d="M593.8 784.3 c-2.1 -0.8 -3.8 -2.1 -3.8 -2.9 0 -0.8 -0.9 -1.4 -2 -1.4 -1.6 0 -2 -0.7 -2 -3.5 0 -3.3 0.2 -3.5 3.5 -3.5 2.4 0 3.5 0.5 3.5 1.5 0 0.8 0.9 1.5 2 1.5 1 0 3.5 0.8 5.5 1.7 3 1.4 3.5 2.2 3.5 5 0 3.1 -0.2 3.3 -3.2 3.2 -1.8 0 -5 -0.7 -7 -1.6z"/>
  <path d="M432 777.5 c0 -3.3 0.2 -3.5 3.5 -3.5 3.3 0 3.5 0.2 3.5 3.5 0 3.3 -0.2 3.5 -3.5 3.5 -3.3 0 -3.5 -0.2 -3.5 -3.5z"/>
  <path d="M440 773.5 c0 -3.2 0.2 -3.5 3 -3.5 2.3 0 3 -0.5 3 -1.9 0 -2.2 1.9 -3.1 6.1 -3.1 2.9 0 3 0.2 2.7 3.8 -0.3 3.5 -0.5 3.7 -4 4 -3 0.3 -3.8 0.7 -3.8 2.3 0 1.5 -0.7 1.9 -3.5 1.9 -3.3 0 -3.5 -0.2 -3.5 -3.5z"/>
  <path d="M558 761.5 c0 -3.3 0.2 -3.5 3.5 -3.5 3.3 0 3.5 0.2 3.5 3.5 0 3.3 -0.2 3.5 -3.5 3.5 -3.3 0 -3.5 -0.2 -3.5 -3.5z"/>
  <path d="M463 760.5 c0 -3.2 0.2 -3.5 3 -3.5 2.3 0 3 -0.4 3 -2 0 -1.6 0.7 -2 3.5 -2 3.3 0 3.5 0.2 3.5 3.5 0 3.2 -0.2 3.5 -3 3.5 -2.3 0 -3 0.4 -3 2 0 1.6 -0.7 2 -3.5 2 -3.3 0 -3.5 -0.2 -3.5 -3.5z"/>
  <path d="M392 757.5 l0 -3.5 14.5 0 14.5 0 0 3.5 0 3.5 -14.5 0 -14.5 0 0 -3.5z"/>
  <path d="M605 757.5 l0 -3.5 10.5 0 10.5 0 0 -7 c0 -7.6 1.5 -9.2 4 -4.5 0.7 1.4 1.7 2.5 2.2 2.5 0.4 0 0.8 3.6 0.8 8 l0 8 -14 0 -14 0 0 -3.5z"/>
  <path d="M426 751.5 c0 -3.3 0.2 -3.5 3.5 -3.5 3.3 0 3.5 0.2 3.5 3.5 0 3.3 -0.2 3.5 -3.5 3.5 -3.3 0 -3.5 -0.2 -3.5 -3.5z"/>
  <path d="M508 737.5 l0 -3.5 5.5 0 5.5 0 0 3.5 0 3.5 -5.5 0 -5.5 0 0 -3.5z"/>
  <path d="M520 708.5 c0 -3.3 0.2 -3.5 3.5 -3.5 3.3 0 3.5 0.2 3.5 3.5 0 3.3 -0.2 3.5 -3.5 3.5 -3.3 0 -3.5 -0.2 -3.5 -3.5z"/>
  <path d="M505 704.6 c0 -3.7 1.5 -4.6 8.3 -4.6 3.5 0 3.7 0.1 3.7 3.4 0 3.1 -0.3 3.4 -3.7 4 -7.5 1.2 -8.3 0.9 -8.3 -2.8z"/>
  <path d="M619 677 c0 -3.5 0.3 -4 2.4 -4 1.6 0 2.6 0.7 3 2.3 1.2 4.6 0.8 5.7 -2.4 5.7 -2.8 0 -3 -0.2 -3 -4z"/>
  <path d="M500 625.1 c0 -12.7 0.4 -23.2 0.8 -23.5 0.5 -0.3 5.9 -0.2 12 0.1 l11.2 0.6 0 22.2 c0 19.4 -0.2 22.4 -1.6 22.9 -0.9 0.3 -6.3 0.6 -12 0.6 l-10.4 0 0 -22.9z"/>
  <path d="M617.6 631.9 c-1 -9.8 -0.8 -12.9 0.8 -12.9 1.6 0 2.4 3.2 2.7 10.5 0.2 7.3 0 8.5 -1.5 8.5 -0.9 0 -1.5 -2 -2 -6.1z"/>
  <path d="M612 556 c0 -4.5 2.3 -5.7 3.4 -1.7 1.1 4.1 0.7 5.7 -1.4 5.7 -1.7 0 -2 -0.7 -2 -4z"/>
  <path d="M611 543 c0 -4.5 2.3 -5.7 3.4 -1.7 1.1 4.1 0.7 5.7 -1.4 5.7 -1.7 0 -2 -0.7 -2 -4z"/>
  <path d="M500.7 534.3 c-0.4 -0.3 -0.7 -11.1 -0.7 -24 l0 -23.3 12 0 12 0 -0.2 23.8 -0.3 23.7 -11.1 0.2 c-6.1 0.2 -11.4 0 -11.7 -0.4z"/>
  <path d="M493 483.5 c0 -2.8 0.4 -3.5 2 -3.5 1.1 0 2 -0.4 2 -1 0 -0.6 5.3 -1 14 -1 l14 0 0 3.5 0 3.5 -12.5 0 c-7.7 0 -12.5 0.4 -12.5 1 0 0.6 -1.6 1 -3.5 1 -3.3 0 -3.5 -0.2 -3.5 -3.5z"/>
  <path d="M606 473.5 c0 -4 0.4 -5.5 1.4 -5.5 1.6 0 2.6 3 2.6 7.8 0 2.5 -0.4 3.2 -2 3.2 -1.8 0 -2 -0.7 -2 -5.5z"/>
  <path d="M603 436.5 c0 -4 2.4 -4.9 3.4 -1.2 1 3.7 0.7 4.7 -1.4 4.7 -1.6 0 -2 -0.7 -2 -3.5z"/>
  <path d="M419 400.5 c0 -3.1 0.3 -3.5 2.5 -3.5 2.2 0 2.5 0.4 2.5 3.5 0 3.1 -0.3 3.5 -2.5 3.5 -2.2 0 -2.5 -0.4 -2.5 -3.5z"/>
  <path d="M588 400.5 c0 -3.3 0.2 -3.5 3.5 -3.5 3.3 0 3.5 0.2 3.5 3.5 0 3.3 -0.2 3.5 -3.5 3.5 -3.3 0 -3.5 -0.2 -3.5 -3.5z"/>
  <path d="M602 400.5 c0 -3.1 0.3 -3.5 2.5 -3.5 2.8 0 3 0.8 1.3 4.5 -1.7 3.7 -3.8 3.2 -3.8 -1z"/>
  <path d="M421 376 l0 -17 9.5 0 9.5 0 0 3.5 0 3.5 -6 0 -6 0 0 10 0 10 6 0 6 0 0 3.5 0 3.5 -9.5 0 -9.5 0 0 -17z"/>
  <path d="M444 376 l0 -17 12.5 0 12.5 0 0 4 0 4.1 -9 -0.7 -9 -0.7 0 10.2 0 10.1 9 0 9 0 0 3.5 0 3.5 -12.5 0 -12.5 0 0 -17z"/>
  <path d="M473 376 l0 -17 12 0 12 0 0 3.5 0 3.5 -8.5 0 -8.5 0 0 10 0 10 8.5 0 8.5 0 0 3.5 0 3.5 -12 0 -12 0 0 -17z"/>
  <path d="M501 389.5 l0 -3.5 11.5 0 11.5 0 0 3.5 0 3.5 -11.5 0 -11.5 0 0 -3.5z"/>
  <path d="M528 389.5 l0 -3.5 11.5 0 11.5 0 0 3.5 0 3.5 -11.5 0 -11.5 0 0 -3.5z"/>
  <path d="M555 376 l0 -17 12.5 0 12.5 0 0 4 0 4.1 -9 -0.7 -9 -0.7 0 10.2 0 10.1 9 0 9 0 0 3.5 0 3.5 -12.5 0 -12.5 0 0 -17z"/>
  <path d="M584 376 l0 -17 9.5 0 9.5 0 0 5.5 0 5.5 -3.5 0 c-2.8 0 -3.5 -0.4 -3.5 -2 0 -1.5 -0.7 -2 -2.5 -2 l-2.5 0 0 10 0 10 2.5 0 c2.1 0 2.5 -0.5 2.5 -3 0 -2.7 0.3 -3 3.4 -3 3.2 0 3.4 0.2 4 4.6 1.2 9 1.8 8.4 -9.4 8.4 l-10 0 0 -17z"/>
  <path d="M529 368.5 l0 -9.5 11 0 11 0 0 3.5 0 3.5 -7.5 0 -7.5 0 0 6 0 6 -3.5 0 -3.5 0 0 -9.5z"/>
  <path d="M501 365.5 l0 -6.5 10.5 0 10.5 0 0 3.5 0 3.5 -7 0 -7 0 0 3 c0 2.8 -0.3 3 -3.5 3 l-3.5 0 0 -6.5z"/>
  <path d="M589 351.5 l0 -3.5 5.8 0 c3.1 0 6.7 -0.3 7.8 -0.6 1.7 -0.4 2.3 0 2.8 1.9 0.3 1.4 0.9 3.2 1.2 4.1 0.5 1.4 -0.6 1.6 -8.5 1.6 l-9.1 0 0 -3.5z"/>
  <path d="M506 312.6 c0 -0.9 -1.2 -1.6 -3.2 -1.8 -3 -0.3 -3.3 -0.6 -3.6 -4 -0.3 -3.8 -0.3 -3.8 3.3 -3.8 2.8 0 3.8 0.5 4.2 2 0.4 1.7 1.4 2 5.4 2 3.7 0 4.9 -0.4 4.9 -1.5 0 -1 1.1 -1.5 3.5 -1.5 3.3 0 3.5 0.2 3.5 3.5 0 3.2 -0.2 3.5 -3 3.5 -2 0 -3 0.5 -3 1.5 0 1.2 -1.3 1.5 -6 1.5 -4.5 0 -6 -0.3 -6 -1.4z"/>
  <path d="M523.1 297.8 c0.7 -8.7 -4.4 -14.8 -12.2 -14.8 -2.9 0 -3 -0.2 -2.7 -3.7 l0.3 -3.8 5.8 -0.3 c3.1 -0.2 5.7 0.1 5.7 0.6 0 0.5 1.4 1.5 3 2.2 1.7 0.7 3 1.6 3 2.1 0 0.5 0.9 1.8 1.9 2.8 2.2 2.2 3.7 11.2 2.6 16 -0.6 2.7 -1.1 3.1 -4.2 3.1 l-3.5 0 0.3 -4.2z"/>
 </g>
 <g fill="#d8302a">
  <path d="M332 880.3 c0 -2.1 0.5 -2.3 4.5 -2.3 3.8 0 4.5 0.3 4.5 2 0 2 -0.5 2.2 -6.2 2.4 -2.3 0.1 -2.8 -0.3 -2.8 -2.1z"/>
  <path d="M482 882.1 c0 -0.5 -0.8 -0.8 -1.7 -0.7 -1.2 0 -1.9 -0.7 -2.1 -2.1 l-0.3 -2.3 -75.5 0 -75.4 0 0 -3.7 c0 -2.1 0.4 -4.3 0.8 -5 0.6 -0.9 19.4 -1.2 79.2 -1.4 l78.5 -0.1 0.3 8.1 c0.3 7.6 0.2 8.1 -1.8 8.1 -1.1 0 -2 -0.4 -2 -0.9z"/>
  <path d="M539 835.5 l0 -47.5 -4 0 c-3.9 0 -4 -0.1 -4 -3.5 l0 -3.5 -20.5 0 -20.5 0 0 3.5 c0 2.8 -0.4 3.5 -2 3.5 -1.7 0 -2 0.7 -2 4.5 l0 4.5 -79.1 0 -79.1 0 0.6 -3.1 c0.3 -1.7 0.6 -4.2 0.6 -5.4 l0 -2.3 40.8 -0.4 c46.8 -0.4 40.5 0.8 63.1 -12.1 7.4 -4.3 14 -7.7 14.7 -7.7 0.7 0 1.4 -0.4 1.6 -0.9 0.2 -0.4 5.6 -3.8 12.1 -7.5 6.4 -3.6 16.8 -9.5 23 -13 19.8 -11.2 18.7 -10.8 29.6 -10.4 l9.6 0.3 15 8.6 c27.9 16 54.4 30.7 56.4 31.4 1.2 0.3 2.1 1.5 2.1 2.6 0 1.4 0.7 1.9 2.6 1.9 1.4 0 5.7 1.6 9.5 3.6 l6.9 3.6 41.4 -0.4 c37 -0.3 41.3 -0.2 40.6 1.2 -0.4 0.8 -0.6 3.5 -0.3 6 l0.5 4.5 -75.3 -0.3 c-79.5 -0.3 -76.8 -0.4 -76.9 4.1 0 1.8 1.8 1.9 44 1.5 28.8 -0.2 44.1 0 44.2 0.7 0.1 0.6 0.2 10.7 0.3 22.5 0 11.8 0.5 24.6 0.9 28.4 l0.9 6.8 -4.4 -0.7 c-2.4 -0.4 -22.5 -0.9 -44.5 -1.1 l-40.1 -0.5 -0.7 2.3 c-0.3 1.3 -0.6 3.1 -0.6 4.1 0 1.6 4.3 1.7 75.5 1.7 l75.5 0 0 5 0 5 -74.9 0 -74.9 0 -0.6 2.6 c-0.5 1.7 -1.2 2.4 -2.1 2 -0.8 -0.3 -1.5 -0.1 -1.5 0.4 0 0.6 -0.9 1 -2 1 -2 0 -2 -0.7 -2 -47.5z m88 11.5 l0 -3 -40 0 -40 0 0 3 0 3 40 0 40 0 0 -3z m-1.6 -12.6 c2.1 -0.8 2.1 -5 0 -5.8 -2.5 -0.9 -6.4 -0.7 -6.4 0.4 0 0.6 -7.6 1 -20.9 1 -12.9 0 -21.2 -0.4 -21.6 -1 -0.4 -0.6 -6.5 -1 -15 -1 l-14.3 0 -0.6 2.5 c-0.4 1.4 -0.4 3 -0.1 3.5 0.7 1.1 76.2 1.4 78.9 0.4z m0.4 -16.3 c0.8 -0.5 1.2 -1.7 1 -2.7 -0.3 -1.8 -2.1 -1.9 -40.1 -2.2 l-39.7 -0.2 0 3 0 3 38.8 0 c21.3 0 39.3 -0.4 40 -0.9z m59.7 -29.4 c2.2 -0.2 -13.9 -0.5 -35.7 -0.8 -21.8 -0.2 -39.4 -0.1 -39 0.3 0.4 0.4 2.7 0.8 5.2 1 5.1 0.3 63.4 -0.1 69.5 -0.5z m-208.1 -2.3 c4 -0.6 4.6 -1 4.6 -3.1 l0 -2.4 -20.2 0.3 c-20.1 0.3 -20.3 0.3 -24.8 3 l-4.5 2.8 20.1 0 c11.1 0 22.2 -0.3 24.8 -0.6z m111.4 -0.8 c-1.5 -0.8 -3.8 -2.2 -5 -3 -1.9 -1.3 -5.7 -1.6 -22 -1.6 l-19.8 0 0 2.4 c0 3.2 0.5 3.3 27.5 3.4 19.6 0.2 21.7 0 19.3 -1.2z m8.2 -5.1 c-1.4 -0.8 -2.9 -1.4 -3.5 -1.4 -0.5 0 0.1 0.6 1.5 1.4 1.4 0.8 3 1.4 3.5 1.4 0.6 0 -0.1 -0.6 -1.5 -1.4z m-40.5 -12.2 c-3.7 -2.6 -4.8 -2.8 -16.2 -3.1 -8.1 -0.2 -12.3 0 -12.3 0.7 0 1.3 -26.7 1.3 -27.6 0 -0.3 -0.5 -6.6 -0.9 -14 -0.9 -12.4 0 -13.9 0.2 -18.4 2.5 -2.8 1.4 -5 2.8 -5 3 0 0.3 21.9 0.5 48.7 0.5 l48.8 0 -4 -2.7z m-26.8 -14.9 c-3.4 -1.8 -7.4 -2.7 -14.6 -3.4 -10.9 -1 -15.5 -0.2 -22.1 3.8 l-3.5 2.2 22.5 -0.1 22.5 0 -4.8 -2.5z"/>
  <path d="M386 859.7 c0 -2.1 0.7 -3.6 2 -4.5 1.9 -1.2 2 -2.3 2 -26.2 0 -19.2 0.3 -25.2 1.3 -25.5 0.6 -0.2 22.2 -0.6 48 -0.7 l46.7 -0.3 0 5.2 0 5.3 -43.7 0.2 -43.8 0.3 -0.3 2.8 -0.3 2.9 43.8 -0.3 43.8 -0.3 0.3 5.1 0.3 5 -26.3 -0.2 c-18.2 -0.2 -26.5 0 -27 0.8 -0.5 0.8 -2.7 0.8 -8 0 -4 -0.5 -11.6 -0.9 -16.8 -0.7 -9.9 0.3 -12 1.3 -10.7 4.9 0.7 1.6 3.7 1.7 44.7 1.3 l44 -0.3 0 5 0 5 -44.2 0 -44.3 0 -0.3 2.7 -0.3 2.8 44.3 0.2 44.3 0.3 0.3 4.5 0.3 4.5 -43.5 -0.3 c-43 -0.4 -43.6 -0.4 -46.2 1.7 -1.7 1.3 -4.1 2.1 -6.5 2.1 -3.7 0 -3.9 -0.1 -3.9 -3.3z"/>
  <path d="M659 858.5 c0 -2.4 0.5 -3.5 1.5 -3.5 1.6 0 2.1 -10.1 1.6 -30.2 -0.3 -9.3 -0.2 -9.8 1.7 -9.8 1.9 0 2.1 0.7 2.5 6.3 l0.3 6.2 0.2 -6.2 c0.1 -3.5 0.7 -6.3 1.2 -6.3 0.6 0 1 1 1 2.1 0 2.1 0.2 2.1 14.5 1.4 l14.5 -0.7 0 5.7 0 5.7 -14 -0.7 -14 -0.8 0 3.8 0 3.7 14 -0.7 14 -0.7 0 5.5 0 5.4 -14 -0.5 -14 -0.5 0 3.3 0 3.3 14 -0.5 14 -0.5 0 3.6 c0 6.2 -1 8.3 -3.5 7.7 -4.4 -1.1 -27.9 -0.9 -28.3 0.3 -0.2 0.6 -1.9 1.1 -3.8 1.1 -3.2 0 -3.4 -0.2 -3.4 -3.5z"/>
  <path d="M354.5 860 c-1.1 -0.5 -7.2 -0.9 -13.6 -0.9 l-11.6 -0.1 -0.7 -3.1 c-1.2 -6.1 -1.7 -5.9 12.9 -5.9 l13.5 0 0 -3 0 -3 -13.5 0 -13.5 0 0 -4.5 0 -4.5 11.9 0 c6.6 0 12.6 -0.3 13.5 -0.6 2.1 -0.8 2.1 -5 0 -5.8 -0.9 -0.3 -6.9 -0.6 -13.5 -0.6 l-11.9 0 0 -4.5 0 -4.5 11.9 0 c6.6 0 12.6 -0.3 13.5 -0.6 0.9 -0.3 1.6 -1.7 1.6 -3.1 l0 -2.5 -12.9 0.4 c-7.1 0.2 -13.2 0 -13.6 -0.4 -0.4 -0.4 -1 -2.7 -1.2 -5.1 l-0.5 -4.4 17.3 -0.5 c12.6 -0.4 17.6 -0.3 18.1 0.6 0.4 0.6 0.7 13.8 0.6 29.4 l-0.2 28.2 -3.1 -0.1 c-1.6 0 -3.9 -0.4 -5 -0.9z"/>
  <path d="M663.3 812.3 c-1.7 -0.6 -1.7 -6.1 0 -7.8 1 -0.9 6.3 -1.5 18 -2 l16.7 -0.8 0 5.7 0 5.6 -16.7 -0.1 c-9.3 0 -17.4 -0.3 -18 -0.6z m3.4 -5 c-0.3 -1 -0.5 -0.2 -0.5 1.7 0 1.9 0.2 2.7 0.5 1.8 0.2 -1 0.2 -2.6 0 -3.5z"/>
  <path d="M417.2 757.8 c0.1 -3.5 2 -7.6 4 -8.9 0.7 -0.5 3.2 -0.9 5.6 -0.9 l4.2 0 0 4.3 c0 4 -0.3 4.5 -3.9 6.5 -2.1 1.2 -5.2 2.2 -6.9 2.2 -2.8 0 -3.1 -0.3 -3 -3.2z"/>
  <path d="M601.3 760.3 c-1.7 -0.2 -3.7 -1.1 -4.3 -1.9 -0.7 -0.8 -1.9 -1.4 -2.6 -1.4 -0.9 0 -1.4 -1.2 -1.4 -3.5 l0 -3.5 5.5 0 c4.3 0 5.9 0.4 7.2 2 1.3 1.5 3 2 7 2 l5.3 0 0 -43.5 0 -43.5 2.4 0 c2.1 0 2.5 0.6 3.1 4.2 0.5 2.8 0.4 4.3 -0.4 4.6 -1.6 0.5 -1.3 2.2 0.4 2.2 1.2 0 1.5 1.4 1.6 6.3 0.3 23.4 0.9 38 1.8 43.2 0.6 3.3 1.1 9.8 1.2 14.5 0 4.7 0.4 9.4 0.9 10.5 0.7 1.7 0.9 1.7 0.9 0.3 0.1 -1 0.8 -1.8 1.6 -1.8 1 0 1.5 1.1 1.5 3.5 0 2.4 -0.5 3.5 -1.5 3.5 -0.8 0 -1.5 -0.8 -1.6 -1.7 0 -1.1 -0.3 -1.3 -0.6 -0.5 -0.2 0.6 -2.1 1.3 -4.1 1.3 -3.1 0.2 -3.2 0.3 -0.9 0.6 3 0.5 3.6 1.8 1.1 2.7 -1.7 0.6 -18.7 0.6 -24.1 -0.1z"/>
  <path d="M437 744 c0 -2.7 0.5 -5 1 -5 0.6 0 1.9 -0.9 3 -2 1.4 -1.4 3.3 -2 6.5 -2 l4.5 0 0 4.3 c0 3.9 -0.3 4.4 -4.4 7 -2.4 1.5 -5.7 2.7 -7.5 2.7 -3.1 0 -3.1 -0.1 -3.1 -5z"/>
  <path d="M575.6 745.5 c-2 -1.4 -4.1 -2.5 -4.6 -2.5 -0.6 0 -1 -1.6 -1 -3.5 l0 -3.5 5 0 c2.8 0 5 0.5 5 1 0 0.6 0.6 1 1.3 1 2.7 0 5.7 3.7 5.7 6.9 0 2.9 -0.2 3.1 -3.9 3.1 -2.4 0 -5.1 -0.9 -7.5 -2.5z"/>
  <path d="M460 730.3 c0 -4.4 0.3 -5 3.5 -7 2.3 -1.5 5 -2.3 8 -2.3 l4.5 0 0 4 c0 3.7 -0.4 4.2 -4.7 7 -2.8 1.7 -6.2 3 -8 3 -3.3 0 -3.3 -0.1 -3.3 -4.7z"/>
  <path d="M553.2 732 c-2.3 -1.7 -4.7 -3 -5.2 -3 -0.6 0 -1 -1.6 -1 -3.5 0 -3.2 0.3 -3.5 2.8 -3.5 5.1 0.1 10.7 1.9 12.5 4.1 0.9 1.1 1.7 3.6 1.7 5.5 0 3.2 -0.2 3.4 -3.2 3.4 -2 -0.1 -5 -1.3 -7.6 -3z"/>
  <path d="M485 715 c0 -3.8 0.4 -5 1.5 -5 0.8 0 1.5 -0.4 1.5 -1 0 -0.5 2 -1 4.5 -1 l4.5 0 0 3.9 c0 3.2 -0.5 4.3 -2.9 6 -1.6 1.2 -4.3 2.1 -6 2.1 -3.1 0 -3.1 -0.1 -3.1 -5z"/>
  <path d="M531 718.1 c-3 -1.6 -3.5 -2.4 -3.8 -6 -0.3 -4.1 -0.3 -4.1 3.2 -4.1 1.9 0 4.1 0.7 5 1.5 0.8 0.8 1.7 1.5 2.1 1.5 1.6 0 3.5 3.2 3.5 5.9 0 2.8 -0.3 3.1 -3.3 3.1 -1.8 0 -4.8 -0.8 -6.7 -1.9z"/>
  <path d="M507 704.1 c0 -3.5 0.3 -3.9 3.1 -4.5 7.1 -1.4 9.9 0.1 9.9 5.3 l0 3.1 -6.5 0 -6.5 0 0 -3.9z"/>
  <path d="M401.2 692.8 c0.4 -6.8 1.1 -16.9 1.4 -22.5 0.5 -9.3 0.8 -10.3 2.5 -10.3 1.8 0 1.9 0.9 1.9 13 0 8 -0.4 13 -1 13 -0.6 0 -1 3.8 -1 9.5 0 9.2 -0.1 9.5 -2.2 9.5 l-2.3 0 0.7 -12.2z"/>
  <path d="M508 653.5 c0 -3.5 0 -3.5 4.5 -3.5 4.5 0 4.5 0 4.5 3.5 0 3.5 0 3.5 -4.5 3.5 -4.5 0 -4.5 0 -4.5 -3.5z"/>
  <path d="M505 647 c0 -0.5 -0.7 -1 -1.5 -1 -1.1 0 -1.5 -1.1 -1.3 -4.2 0.1 -4.3 0.1 -4.3 0.5 -0.6 l0.4 3.6 7.2 0 c9.9 0 10.7 -0.3 10.5 -4.1 -0.1 -5.5 0.2 -6.7 1.7 -6.7 1.6 0 2 5.1 0.9 10.9 l-0.6 3.1 -8.9 0 c-5.3 0 -8.9 -0.4 -8.9 -1z"/>
  <path d="M516 642 c0 -0.5 0.7 -1 1.5 -1 0.8 0 1.5 0.5 1.5 1 0 0.6 -0.7 1 -1.5 1 -0.8 0 -1.5 -0.4 -1.5 -1z"/>
  <path d="M598.6 604.8 c-0.4 -6.2 -1.2 -17.6 -1.8 -25.3 -0.7 -8.6 -1 -44.9 -1 -94.7 l0.1 -80.8 -17.5 0 -17.4 0 0 -3.5 0 -3.5 10.8 0 c6 0 16.4 -0.3 23 -0.7 12 -0.6 12.2 -0.6 12.2 1.5 0 1.2 -0.5 2.2 -1.1 2.2 -0.7 0 -0.8 5.7 -0.5 17.8 0.8 27 1.5 181.6 0.9 190.5 l-0.6 7.7 -3.2 0 -3.3 0 -0.6 -11.2z"/>
  <path d="M508 595.5 l0 -3.5 9.5 0 9.5 0 0 3.5 0 3.5 -9.5 0 -9.5 0 0 -3.5z"/>
  <path d="M519 483.6 c0 -0.8 0.8 -1.7 1.8 -1.9 1.6 -0.4 1.6 -0.5 0 -0.6 -1 0 -1.8 -0.8 -1.8 -1.6 0 -1 1.1 -1.5 3.5 -1.5 3.3 0 3.5 0.2 3.5 3.5 0 3.3 -0.2 3.5 -3.5 3.5 -2.4 0 -3.5 -0.5 -3.5 -1.4z"/>
  <path d="M419 402.6 c0 -0.8 0.6 -1.7 1.3 -1.9 1 -0.4 1 -0.6 0 -0.6 -0.7 -0.1 -1.3 -0.8 -1.3 -1.6 0 -1 1 -1.5 3 -1.5 2.8 0 3 0.3 3 3.5 0 3.2 -0.2 3.5 -3 3.5 -1.9 0 -3 -0.5 -3 -1.4z"/>
  <path d="M428 400.5 l0 -3.5 19.5 0 19.5 0 0 3.5 0 3.5 -19.5 0 -19.5 0 0 -3.5z"/>
  <path d="M473 400.5 l0 -3.5 8.5 0 8.5 0 0 3.5 0 3.5 -8.5 0 -8.5 0 0 -3.5z"/>
  <path d="M495 400.5 l0 -3.5 8.5 0 8.5 0 0 3.5 0 3.5 -8.5 0 -8.5 0 0 -3.5z"/>
  <path d="M517 400.5 l0 -3.5 20.5 0 20.5 0 0 3.5 0 3.5 -20.5 0 -20.5 0 0 -3.5z"/>
  <path d="M461.3 392.5 c-1.9 -2.1 -1.7 -2.3 2 -2.8 l3.2 -0.4 -3.2 -0.1 -3.3 -0.2 0 -9.4 c0 -12.2 -0.2 -12.6 -5.6 -12.6 -3.7 0 -4.4 0.3 -4.4 2 0 1.1 -0.4 2 -1 2 -0.5 0 -1 -1.8 -1 -4.1 l0 -4 9 0.3 c5 0.2 9 0 9 -0.4 0 -0.5 -4.3 -0.8 -9.5 -0.8 l-9.5 0 0 4.5 c0 3.8 -0.3 4.5 -2 4.5 -1.8 0 -2 -0.7 -2 -5.5 l0 -5.5 12.4 0 c6.9 0 12.7 0.3 12.9 0.8 0.3 0.4 0.6 7.9 0.8 16.7 l0.4 16 -3.5 0.2 c-2.1 0.2 -4 -0.3 -4.7 -1.2z"/>
  <path d="M516.8 392.3 c-2.9 -0.7 -2.1 -2.1 1.5 -2.6 l3.2 -0.4 -3.2 -0.1 -3.3 -0.2 0 -10.4 c0 -11 -0.3 -11.6 -5.1 -11.6 -1.8 0 -1.9 0.8 -1.9 11 l0 11 -3.5 0 -3.5 0 0 -13.4 c0 -7.4 0.3 -14.1 0.6 -15 0.5 -1.3 2.5 -1.6 12 -1.6 l11.4 0 0 17 0 17 -3.2 -0.1 c-1.8 -0.1 -4.1 -0.3 -5 -0.6z"/>
  <path d="M431 391.1 c0 -0.6 1.5 -1.2 3.3 -1.4 l3.2 -0.4 -3.2 -0.1 -3.3 -0.2 0 -10.1 0 -10 -3 -1 c-1.9 -0.7 -3 -1.8 -3 -3 0 -1.5 1 -1.9 6.3 -2.2 l6.2 -0.3 -6.7 -0.2 c-6.6 -0.2 -6.8 -0.1 -6.8 2.3 0 1.4 -0.4 2.5 -1 2.5 -0.5 0 -1 -1.6 -1 -3.5 l0 -3.5 9 0 9 0 0 16 0 16 -4.5 0 c-2.5 0 -4.5 -0.4 -4.5 -0.9z"/>
  <path d="M488 391.1 c0 -0.6 1.5 -1.2 3.3 -1.4 l3.2 -0.4 -3.2 -0.1 -3.3 -0.2 0 -9.7 c0 -5.4 -0.4 -10.4 -0.9 -11.2 -0.7 -1 -2.1 -1.2 -5.4 -0.7 -3.9 0.6 -4.6 0.4 -5 -1.1 -0.4 -1.7 -0.5 -1.7 -0.6 0 0 0.9 -0.8 1.7 -1.7 1.7 -1.2 0 -1.4 -0.9 -1.2 -4.2 l0.3 -4.3 7.5 -0.2 c4.1 -0.1 9.4 0 11.8 0.3 l4.2 0.5 0 16 0 15.9 -4.5 0 c-2.5 0 -4.5 -0.4 -4.5 -0.9z m-1.7 -28.8 c-1.3 -0.2 -3.5 -0.2 -5 0 -1.6 0.2 -0.5 0.4 2.2 0.4 2.8 0 4 -0.2 2.8 -0.4z"/>
  <path d="M528.6 390.4 c-0.3 -0.9 -0.6 -5.4 -0.6 -10 0 -7.6 0.2 -8.4 1.9 -8.4 1.1 0 2.2 0.8 2.4 1.8 0.4 1.6 0.5 1.6 0.6 0 0 -1 0.8 -1.8 1.6 -1.8 1.2 0 1.5 1.6 1.5 8.4 0 8.5 0 8.5 -2.7 8.9 l-2.8 0.4 2.8 0.2 c3.9 0.2 3.3 2.1 -0.7 2.1 -2.2 0 -3.6 -0.6 -4 -1.6z"/>
  <path d="M542 391.1 c0 -0.6 1.5 -1.2 3.3 -1.4 3.1 -0.4 3.1 -0.4 -0.5 -0.5 l-3.8 -0.2 0 -11 0 -11 -3 0 c-2 0 -3 0.5 -3 1.5 0 0.8 -0.4 1.5 -1 1.5 -0.5 0 -1 -1.6 -1 -3.5 l0 -3.4 7.8 -0.4 7.7 -0.3 -8.2 -0.2 -8.3 -0.2 0 4 c0 3.3 -0.3 4 -2 4 -1.8 0 -2 -0.7 -2 -5.6 l0 -5.7 5.3 0.7 c2.8 0.3 8 0.6 11.5 0.6 l6.2 0 0 16 0 16 -4.5 0 c-2.5 0 -4.5 -0.4 -4.5 -0.9z"/>
  <path d="M571 391.1 c0 -0.6 1.5 -1.2 3.3 -1.4 l3.2 -0.4 -3.2 -0.1 -3.2 -0.2 -0.3 -10.7 -0.3 -10.8 -5.9 0.2 -5.8 0.2 0.4 -2.9 c0.3 -1.7 0.1 -3 -0.4 -3 -0.4 0 -0.8 1.4 -0.8 3 0 1.7 -0.5 3 -1.1 3 -0.6 0 -0.9 -1.7 -0.7 -4.2 l0.3 -4.3 11 0.4 c6.1 0.2 11.3 0.5 11.8 0.8 0.4 0.2 0.7 7.4 0.7 15.9 l0 15.4 -4.5 0 c-2.5 0 -4.5 -0.4 -4.5 -0.9z m6 -28.1 c0 -0.6 -3.1 -0.9 -7.7 -0.8 l-7.8 0.2 7.5 0.6 c4.1 0.4 7.6 0.7 7.8 0.8 0.1 0.1 0.2 -0.2 0.2 -0.8z"/>
  <path d="M584 388 c0 -4.2 2.4 -5.8 3.3 -2.2 0.4 1.6 0.5 1.6 0.6 0 0.2 -2.8 3.1 -2.2 3.1 0.6 0 1.8 -0.7 2.6 -2.2 2.9 l-2.3 0.4 2.3 0.2 c3.6 0.2 2.5 2.1 -1.3 2.1 -3.4 0 -3.5 -0.1 -3.5 -4z"/>
  <path d="M596 391.1 c0 -0.5 1.2 -1.2 2.8 -1.4 l2.7 -0.4 -2.7 -0.2 c-2.6 -0.1 -2.8 -0.4 -2.8 -4.6 0 -2.5 -0.4 -4.5 -1 -4.5 -0.6 0 -1 -3 -1 -7.1 0 -5.7 0.4 -7.5 1.8 -8.5 2.4 -1.9 3 -1.7 3.5 0.9 0.4 1.9 0.4 1.8 0.6 -0.5 0.1 -1.9 -0.4 -2.8 -1.4 -2.8 -0.8 0 -1.5 -0.7 -1.5 -1.5 0 -1 1.1 -1.5 3.5 -1.5 l3.5 0 0 11.3 c0 6.1 -0.3 13.6 -0.6 16.5 -0.7 5.1 -0.7 5.2 -4 5.2 -1.9 0 -3.4 -0.4 -3.4 -0.9z"/>
  <path d="M430.3 355.2 l-11.3 -0.3 0 -4.4 c0 -4.1 0.2 -4.5 2.4 -4.5 1.4 0 2.7 0.4 3.1 1 0.3 0.5 8.9 0.8 21.8 0.5 11.7 -0.2 25.1 -0.1 30 0.2 l8.7 0.6 0 3.3 0 3.4 -6.7 0.1 c-17.4 0.3 -37.8 0.4 -48 0.1z"/>
  <path d="M546.8 355.3 l-6.8 -0.4 0 -3.3 0 -3.3 7.4 -0.5 c4.1 -0.3 16.5 -0.3 27.5 0 15.5 0.4 20.1 0.8 20.1 1.8 0 0.7 -0.8 1.5 -1.7 1.7 -1.7 0.4 -1.7 0.5 0 0.6 0.9 0 1.7 0.8 1.7 1.6 0 1.3 -2.4 1.5 -15.7 1.5 -8.7 0 -18 0.2 -20.8 0.4 -2.7 0.2 -8 0.1 -11.7 -0.1z"/>
  <path d="M494 351.5 l0 -3.5 17.5 0 17.5 0 0 3.5 0 3.5 -17.5 0 -17.5 0 0 -3.5z"/>
  <path d="M597.6 347.9 c-0.3 -1.7 -0.6 -16.3 -0.6 -32.5 0 -16.8 -0.4 -30.4 -1 -31.9 -0.5 -1.4 -1.8 -2.8 -2.7 -3.2 -1 -0.3 -3.3 -1.7 -5 -3 -2.6 -1.9 -3.3 -3.1 -3.3 -5.9 0 -1.8 0.3 -3.4 0.8 -3.4 0.8 0 8.3 4.9 9.2 6 0.3 0.3 2.1 1.7 4 3 1.9 1.3 4 2.9 4.7 3.6 0.8 0.8 1.1 10.4 1.1 35.8 l0 34.6 -3.3 0 c-2.8 0 -3.3 -0.4 -3.9 -3.1z"/>
  <path d="M509.2 314.3 c-4.4 -0.3 -5.9 -1 -8.7 -3.8 -2.5 -2.4 -3.5 -4.2 -3.5 -6.4 0 -2.9 0.2 -3.1 3.6 -3.1 2.6 0 4.6 0.8 7 3 2.2 1.9 4 2.7 5.1 2.3 3.8 -1.3 8.5 -5.6 10.1 -9.4 1.8 -4.1 3.7 -5.1 4.5 -2.1 0.4 1.6 0.5 1.6 0.6 0 0 -1 0.8 -1.8 1.7 -1.8 3.1 0 1.1 9.4 -3.4 15.9 -4.2 6.2 -4.6 6.3 -17 5.4z"/>
  <path d="M506.6 281.4 c-0.3 -0.9 -0.6 -2.9 -0.6 -4.5 0 -2.9 0 -2.9 6 -2.9 l6 0 0 3.5 c0 2.9 -0.5 3.7 -2.6 4.5 -3.9 1.5 -8.1 1.2 -8.8 -0.6z m10.4 -2.4 c0 -0.6 -1.1 -0.9 -2.5 -0.7 -3.7 0.5 -4.2 1.7 -0.7 1.7 1.8 0 3.2 -0.5 3.2 -1z"/>
 </g>
 <g fill="#e73a30">
  <path d="M328.6 880.5 c-0.9 -1.4 -1.6 -3.3 -1.6 -4.5 0 -2 0.2 -2 77 -2 72.7 0 77 0.1 77 1.8 0 0.9 0.5 2.4 1 3.2 0.8 1.1 1 0 0.8 -3.8 l-0.3 -5.3 -77.6 0.1 -77.7 0 1 -3.8 1 -3.9 9 -0.7 c5 -0.3 22.9 -0.7 39.7 -0.8 16.8 -0.1 26.8 -0.4 22.2 -0.5 -8.2 -0.4 -8.3 -0.4 -6.6 -2.3 1.7 -1.9 3.4 -2 42.9 -2 22.6 0 42.1 0.3 43.3 0.6 1.2 0.3 2.4 1.7 2.7 3 0.4 1.3 1.3 2.4 2.1 2.4 1.1 0 1.5 1.3 1.5 5.4 0 3.2 -0.5 5.6 -1.1 5.8 -0.9 0.3 -0.9 0.9 0 2.5 1.9 3.6 1.4 7.3 -0.9 7.3 -1.1 0 -2 -0.5 -2 -1.1 0 -0.5 -0.4 -0.8 -0.9 -0.5 -0.6 0.4 -81.5 0.6 -144.1 0.4 -1.4 0 -3.5 0.2 -4.7 0.5 -1.6 0.4 -2.6 -0.1 -3.7 -1.8z"/>
  <path d="M539.4 878.8 c0.9 -5.3 0.9 -5.1 0 -12.1 -0.5 -4.2 -0.4 -6.1 0.5 -6.7 1 -0.5 1 -2 0 -6.8 -1 -4.7 -1 -6.6 -0.1 -8.4 0.6 -1.3 1.3 -4.3 1.5 -6.8 0.3 -3.4 0.4 -2.8 0.5 2.3 0.1 3.7 0.6 6.7 1.2 6.7 0.6 0 1 -1.3 1 -3 l0 -3 42.9 0 c33.4 0 43 0.3 43.4 1.3 0.7 2 1.3 -8 0.6 -10.5 -0.6 -1.8 -0.7 -1.5 -0.8 1.4 -0.1 3 -0.5 3.9 -2.3 4.3 -1.3 0.3 -20.7 0.4 -43.3 0.3 -38.1 -0.3 -41 -0.4 -41.3 -2 -0.3 -1.7 2.2 -1.8 42.1 -1.8 l42.4 0 -0.5 -2.5 -0.4 -2.6 -8.9 0.7 c-7.9 0.6 -8.9 0.5 -8.9 -1 0 -0.9 0.7 -1.6 1.5 -1.6 0.8 0 1.5 -0.5 1.5 -1.1 0 -0.8 0.6 -0.7 1.7 0.2 1.3 1.1 1.7 1.1 2 0.2 0.7 -1.9 11.8 -1.7 13.7 0.2 1.3 1.3 1.5 1.3 1.8 -0.7 0.2 -1.3 1.1 -2.4 2.2 -2.6 1.7 -0.4 1.8 0.3 1.3 12 -0.6 13.7 -1.9 22.6 -2.9 19.3 -0.3 -1.1 -0.6 -3.3 -0.7 -4.9 -0.2 -4.3 -1.1 -4.5 -1.1 -0.3 l0 3.7 -43.4 0 -43.5 0 -0.4 -2.2 c-0.2 -1.3 -0.4 1.1 -0.5 5.2 0 6.8 0.1 7.1 1 3.8 l1 -3.8 41.1 0 c22.7 0 42.2 0.3 43.5 0.6 4.4 1.2 2.4 3.3 -3.5 3.7 -3.2 0.2 3.2 0.4 14.2 0.5 11 0.1 21 -0.1 22.3 -0.4 1.8 -0.5 2.2 -1.3 2.2 -4.5 0 -2.2 -0.4 -3.9 -1 -3.9 -0.5 0 -1 -1.6 -1 -3.5 0 -1.9 0.5 -3.5 1 -3.5 0.6 0 1 -1.8 1 -4 0 -2.2 -0.4 -4 -1 -4 -0.6 0 -1 -6 -1 -16.1 0 -16.8 0.5 -18.9 4.6 -18.9 1 0 1.4 -0.3 1 -0.7 -1 -1.1 -33.3 -2.2 -81.8 -2.9 l-39.8 -0.6 0 2.1 c0 2.1 0.1 2.1 42.5 2.1 35.5 0 42.5 0.2 42.5 1.4 0 0.7 -1 1.6 -2.2 2 -1.3 0.3 -21.1 0.6 -44 0.6 l-41.7 0 -0.4 -2.2 c-0.3 -1.4 -0.5 -0.9 -0.6 1.5 -0.1 4.5 -1.6 4.9 -2.5 0.6 -1 -5.2 -0.7 -7.9 0.9 -7.9 0.8 0 1.5 0.6 1.6 1.3 0 0.6 0.5 -0.3 1 -2 l1 -3.3 74.7 0 c41.1 0 75.7 0.3 77 0.6 1.9 0.5 2.2 1.3 2.2 5.4 l0 4.8 -15.9 0.7 c-16.5 0.8 -17.6 1.1 -16 5 0.4 1.1 0.8 1.4 0.8 0.8 0.1 -0.9 1.7 -1.3 4.6 -1.3 3.8 0 4.5 0.3 4.5 2 0 1.5 -0.7 2 -2.9 2 -2.4 0 -4.1 1.4 -4.1 3.6 0 0.2 2.9 0.4 6.4 0.4 6.1 0 6.4 -0.1 5.9 -2.1 -0.4 -1.2 -1.4 -2.4 -2.5 -2.6 -2.3 -0.7 -2.4 -2.9 0 -3.5 0.9 -0.3 5.6 -0.3 10.5 0 l8.7 0.5 0 5.3 0 5.4 -5.4 0 c-3 0 -5.7 0.3 -5.9 0.8 -0.3 0.4 -4.8 0.6 -10.1 0.4 l-9.6 -0.3 -0.1 -4.7 -0.1 -4.7 -0.9 3.5 c-0.9 3.7 -0.6 11.6 0.5 12.7 0.3 0.3 0.6 -0.3 0.6 -1.5 0 -2.1 0.5 -2.2 9.3 -2.3 5 -0.1 9.7 0 10.2 0.2 0.6 0.1 3.4 0.5 6.3 0.7 l5.2 0.4 0 5.4 0 5.4 -5.4 0 c-3 0 -5.7 0.3 -5.9 0.8 -0.3 0.4 -4.8 0.6 -10.1 0.4 l-9.6 -0.3 0 -4.1 c0 -2.3 -0.3 -3.9 -0.6 -3.5 -0.4 0.3 -0.8 6.4 -0.9 13.5 l-0.3 12.9 6.2 -0.1 c3.3 0 10.5 0 15.9 0.2 l9.7 0.2 0 6.5 0 6.5 -76.9 0 -77 0 -0.4 -2.2 c-0.2 -1.3 -0.4 1.1 -0.5 5.2 0 6.6 0.1 7.1 1 4.3 l1.1 -3.3 76.3 0 76.4 0 0 4 0 4 -30.2 0.1 c-16.7 0.1 -31.2 0.1 -32.3 0.1 -10.4 -0.4 -91.9 -0.2 -92.3 0.3 -0.3 0.3 -1.2 0.5 -2 0.5 -1.2 0 -1.3 -0.9 -0.8 -4.2z m87.6 -31.8 c0 -2 -0.7 -2 -40 -2 -39.3 0 -40 0 -40 2 0 2 0.7 2 40 2 39.3 0 40 0 40 -2z m56.8 -15.7 c0.3 -2.2 0 -2.3 -6.6 -2.3 -6.7 0 -7 0.1 -7.5 2.5 l-0.4 2.6 7.1 -0.3 c6.5 -0.3 7.1 -0.5 7.4 -2.5z"/>
  <path d="M329 858 c0 -1.9 0.7 -2 12.8 -2 13.9 0 17.2 0.5 17.2 2.6 0 1.1 -2.9 1.4 -15 1.4 -14.3 0 -15 -0.1 -15 -2z"/>
  <path d="M391.6 856.2 c-1.5 -2.5 -1.7 -11 -0.3 -16.7 l1.5 -6 0.2 6.5 c0.1 4.4 0.4 5.7 0.9 4 l0.7 -2.5 40.4 -0.3 c22.3 -0.1 42 0 43.8 0.3 1.8 0.3 3.2 1.2 3.2 2 0 1.3 -6.2 1.5 -42.2 1.7 -39.3 0.3 -42.3 0.4 -42.6 2.1 -0.3 1.6 2.2 1.7 42.7 1.7 l43.1 0 0 2.3 0 2.2 -44.5 -0.3 -44.5 -0.2 -0.9 2.2 c-0.5 1.4 -1 1.7 -1.5 1z"/>
  <path d="M672.3 853.2 l-5.3 -0.3 0 -6 0 -5.9 8.8 -0.1 c10.2 -0.2 14.5 -0.1 19 0.7 3.1 0.5 3.2 0.6 3.2 5.4 0 4.8 -0.1 4.9 -3.2 5.4 -4.7 0.7 -16.4 1.2 -22.5 0.8z m5.5 -5.4 c2.2 -2.2 1.3 -2.8 -3.8 -2.8 -4.3 0 -5 0.3 -5 2 0 1.6 0.7 2 3.8 2 2.1 0 4.3 -0.5 5 -1.2z"/>
  <path d="M328 851 c0 -1.9 0.7 -2 14.5 -2 13.8 0 14.5 0.1 14.5 2 0 1.9 -0.7 2 -14.5 2 -13.8 0 -14.5 -0.1 -14.5 -2z"/>
  <path d="M328 843 c0 -1.9 0.7 -2 15 -2 14.3 0 15 0.1 15 2 0 1.9 -0.7 2 -15 2 -14.3 0 -15 -0.1 -15 -2z"/>
  <path d="M359.2 837.8 c0.2 -6 0.6 -7.3 2.1 -7.6 1.4 -0.3 1.7 0.4 1.7 3.7 0 2.3 -0.4 4.1 -1 4.1 -0.5 0 -1 1.6 -1 3.5 0 1.9 -0.5 3.5 -1 3.5 -0.7 0 -1 -2.7 -0.8 -7.2z"/>
  <path d="M483 838.8 c0 -1 -9.5 -1.3 -44.2 -1.3 -41.4 0 -44.3 -0.1 -44.6 -1.7 -0.3 -1.7 2.1 -1.8 39 -1.8 21.6 0 42.3 -0.3 46.1 -0.7 l6.7 -0.6 0 3.7 c0 2.5 -0.4 3.6 -1.5 3.6 -0.8 0 -1.5 -0.6 -1.5 -1.2z"/>
  <path d="M328 836 c0 -1.9 0.7 -2 14 -2 13.3 0 14 -0.1 14 -2 0 -1.1 0.5 -2 1 -2 1.7 0 1.2 6.7 -0.6 7.4 -0.9 0.3 -7.6 0.6 -15 0.6 -12.7 0 -13.4 -0.1 -13.4 -2z"/>
  <path d="M562.3 829.3 c-18.5 -0.3 -19.1 -0.4 -18.6 -2.3 0.5 -1.9 1.4 -2 17.7 -2 11.1 0 17.6 0.4 18.3 1.1 0.7 0.7 1.7 0.8 3 0.1 1.3 -0.7 2.3 -0.6 3.6 0.3 2.7 2 2 3.5 -1.5 3.3 -1.8 -0.2 -11.9 -0.4 -22.5 -0.5z"/>
  <path d="M597 828.5 c0 -0.8 0.7 -1.5 1.5 -1.5 0.8 0 1.5 -0.5 1.5 -1 0 -0.6 0.8 -0.5 2 0.2 3.2 2 2.4 3.8 -1.5 3.8 -2.4 0 -3.5 -0.5 -3.5 -1.5z"/>
  <path d="M328 827 c0 -1.9 0.7 -2 13.4 -2 14.2 0 16.6 0.4 16.6 2.6 0 1.1 -2.8 1.4 -15 1.4 -14.3 0 -15 -0.1 -15 -2z"/>
  <path d="M390 825.5 c0 -1.9 0.5 -3.5 1 -3.5 0.6 0 1 -0.9 1 -2 0 -1.1 -0.4 -2 -1 -2 -1.1 0 -1.3 -6.5 -0.4 -12.2 l0.7 -3.8 46.3 0 46.4 0 0 2.5 c0 1.4 0.5 2.5 1 2.5 0.6 0 1 1.6 1 3.5 0 3.5 0 3.5 -4.5 3.5 -3.8 0 -4.5 -0.3 -4.5 -2 0 -1.6 0.7 -2 3 -2 2.4 0 3 -0.4 3 -2.2 l0 -2.3 -44.2 0.3 c-24.4 0.1 -44.6 0.6 -45.1 1.1 -0.4 0.4 -0.5 2.1 -0.1 3.6 0.6 2.3 0.8 2.5 1.6 1.1 1.3 -2.4 5.8 -2.1 5.8 0.4 0 1.1 -0.6 2 -1.4 2 -0.7 0 -1.6 0.9 -1.9 2 -0.5 2 0 2 41.9 2 36.4 0 42.4 0.2 42.4 1.5 0 0.8 -1.3 1.6 -3.2 2 -1.8 0.3 -21.5 0.4 -43.8 0.3 l-40.5 -0.3 0.3 -3.9 c0.2 -2.3 0 -3.6 -0.6 -3.2 -0.5 0.3 -1 3 -1 5.8 -0.1 8.5 -0.1 8.8 -1.7 8.8 -1 0 -1.5 -1.1 -1.5 -3.5z"/>
  <path d="M394 828.1 c0 -2.4 3.4 -3 17.5 -2.9 8.3 0 15.8 0.5 16.8 1 1.1 0.5 1.7 0.5 1.7 -0.1 0 -1.1 45.6 -1.5 49.7 -0.5 1.3 0.4 2.3 1.2 2.3 2 0 1.2 -7.1 1.4 -44 1.4 -24.6 0 -44 -0.4 -44 -0.9z"/>
  <path d="M541.3 823.5 c0 -3.3 0.2 -4.5 0.4 -2.7 0.2 1.8 0.2 4.5 0 6 -0.2 1.5 -0.4 0 -0.4 -3.3z"/>
  <path d="M359.2 821.5 c0.1 -5.6 0.3 -6.5 1.9 -6.5 1.7 0 1.9 0.8 1.9 6.5 0 5.8 -0.2 6.5 -1.9 6.5 -1.7 0 -1.9 -0.7 -1.9 -6.5z"/>
  <path d="M328 820 c0 -1.9 0.7 -2 14 -2 11.8 0 14 -0.2 14 -1.5 0 -0.8 0.5 -1.5 1 -1.5 1.7 0 1.2 5.7 -0.6 6.4 -0.9 0.3 -7.6 0.6 -15 0.6 -12.7 0 -13.4 -0.1 -13.4 -2z"/>
  <path d="M543.7 821.3 c-0.4 -0.3 -0.7 -1.2 -0.7 -2 0 -1.1 7.8 -1.3 42.5 -1.3 41.8 0 42.5 0 42.5 -2 0 -1.1 0.5 -2 1 -2 1.7 0 1.2 6.7 -0.6 7.4 -2.1 0.8 -83.9 0.8 -84.7 -0.1z"/>
  <path d="M631 818 c0 -3.3 0.3 -4 2 -4 1.7 0 2 0.7 2 4 0 3.3 -0.3 4 -2 4 -1.7 0 -2 -0.7 -2 -4z"/>
  <path d="M327 804 c0 -1.9 0.7 -2 16 -2 13 0 16 0.3 16 1.4 0 2.1 -3.3 2.6 -18.2 2.6 -13.1 0 -13.8 -0.1 -13.8 -2z"/>
  <path d="M327.7 796 c0.5 -2 1.4 -2 76.4 -2 75.2 0 75.9 0 75.9 2 0 2 -0.7 2 -76.4 2 -75.9 0 -76.4 0 -75.9 -2z"/>
  <path d="M541.1 790.3 l-0.1 -4.3 22.8 -0.2 c22.2 -0.3 22.6 -0.3 19.5 -2 -3 -1.7 -8.4 -1.8 -71.9 -1.8 l-68.8 0 -6.7 4 c-6.7 4 -13.9 5.4 -15.4 3 -0.4 -0.6 -1.5 -0.6 -3.1 0 -1.4 0.6 -3.3 1 -4.2 1 -2.6 -0.1 5.4 -2.7 8.2 -2.7 1.4 0 5.8 -2 9.8 -4.4 l7.3 -4.4 72.9 -0.3 72.9 -0.2 4.1 2.7 c2.5 1.6 3.5 1.9 2.7 0.9 -2.4 -2.8 -15.3 -8.8 -17.7 -8.2 -4.3 1.1 -122.8 0.8 -123.2 -0.3 -0.5 -1.4 -5.4 0.7 -17.4 7.4 -5.3 3 -10 5.5 -10.5 5.5 -0.4 0 5.5 -3.6 13.2 -8 8.4 -4.8 14.7 -7.7 15.7 -7.4 1 0.3 5.4 -1.5 10.1 -4 l8.4 -4.6 16.6 0 c9.7 0 16.8 0.4 17.2 1 0.4 0.6 1.3 0.5 2.5 -0.2 1.4 -0.9 2.5 -0.9 4.4 0 1.7 0.8 2.6 0.8 2.6 0.1 0 -1 5 -0.6 6.9 0.6 3.2 1.9 -1.2 2.4 -24.1 2.7 -22.2 0.3 -25.6 0.5 -27.8 2.1 -2.3 1.6 -0.5 1.7 43.5 1.7 45.9 -0.1 46 -0.1 42.5 -2 -3 -1.6 -5.6 -1.9 -17.7 -2 -8.9 0 -14.3 -0.4 -14.3 -1 0 -0.5 0.7 -1 1.5 -1 0.8 0 1.5 -0.4 1.5 -1 0 -0.6 5.4 -1 14.3 -1 12.4 0 14.7 0.3 17.7 2 6.1 3.5 12.9 7 13.5 7 2.6 0 -4.4 -4.3 -17.4 -10.8 -1.4 -0.7 -3.3 -1.7 -4.1 -2.2 -28 -16.6 -24.9 -15.3 -33.4 -14.8 -7.3 0.3 -10.3 -1.2 -4.6 -2.3 4.9 -1 4.9 -2.2 0 -1.6 -4.5 0.6 -12.1 3.9 -18.9 8.1 -2 1.2 -7.6 4.4 -12.6 7.1 -4.9 2.6 -13.2 7.2 -18.3 10.3 -5.1 3 -9.5 5.2 -9.8 5 -0.5 -0.5 5.6 -4.1 25.6 -15.3 4.1 -2.3 12.2 -6.8 18 -10 11.8 -6.6 18.5 -8 25.2 -5.2 3.7 1.6 44.1 24.1 46.8 26.1 0.8 0.6 5 2.9 9.2 5.1 4.2 2.2 7.4 4.3 7.2 4.7 -0.3 0.5 0.2 0.8 1.1 0.8 0.8 0 4.4 1.4 7.8 3.2 5.6 2.9 6 3.2 3.7 3.8 -2.4 0.6 -2.4 0.7 1.7 3.1 2.4 1.3 4.3 2.9 4.3 3.4 0 0.6 -10.3 1 -29 1 -15.9 0 -29 -0.3 -29 -0.7 0 -2.1 -1.9 -0.4 -2.3 2 -0.3 1.9 -0.4 1.5 -0.6 -1.5z"/>
  <path d="M446 788 c0 -1.9 0.7 -2 18 -2 14.7 0 18 0.3 18 1.4 0 2.1 -3.3 2.6 -20.2 2.6 -15.1 0 -15.8 -0.1 -15.8 -2z"/>
  <path d="M603 787.4 c-5.7 -3.2 -5.8 -3.4 -3.1 -3.4 1.2 0 1.9 0.4 1.6 1 -0.3 0.5 0.7 1.2 2.2 1.6 5.3 1.1 6.3 1.5 6.3 2.5 0 1.5 -2.3 1 -7 -1.7z"/>
  <path d="M409 787.4 c0 -0.5 1.7 -1.4 3.8 -2.1 2 -0.6 15 -7.6 28.7 -15.4 13.8 -7.8 28.4 -16.1 32.5 -18.4 4.1 -2.3 12.2 -6.8 18 -10.1 10.2 -5.7 10.7 -5.9 19.1 -6.2 6 -0.3 9.6 0.1 12.1 1.1 3.4 1.4 44.2 24.1 46.3 25.7 0.6 0.5 4.6 2.7 9 5.1 4.4 2.3 8.2 4.4 8.5 4.8 0.3 0.3 3.5 2.1 7.3 3.8 3.7 1.8 6.7 3.7 6.7 4.3 0 0.5 0.9 1 1.9 1 1 0 2.1 0.7 2.5 1.5 0.3 0.8 1.4 1.5 2.5 1.5 3 0 5.1 1.1 5.1 2.7 0 1 -0.6 1.2 -2.2 0.8 -3.1 -1 -40 -21.2 -75.3 -41.3 -13.9 -8 -15.5 -8.6 -21.6 -9 -8.1 -0.5 -3.9 -2.4 -49.2 23.2 -42.2 23.9 -47.6 26.8 -51.6 27.3 -2.3 0.3 -4.1 0.2 -4.1 -0.3z"/>
  <path d="M392 758.5 c0 -2.4 0.5 -3.5 1.5 -3.5 1.1 0 1.5 -1.2 1.5 -5 0 -2.7 0.4 -5 0.9 -5 1.3 0 2.1 -6.7 2.9 -24 0.4 -9.3 1.2 -16.4 2 -17.7 0.7 -1.3 1.2 -5.8 1.2 -11.2 0 -5.4 0.4 -9.1 1 -9.1 0.6 0 1 -0.7 1 -1.5 0 -0.8 0.4 -1.5 0.8 -1.5 1.2 0 2.2 23.8 2.2 51.8 0 14.8 0.4 23.2 1 23.2 0.6 0 1 0.4 1 1 0 0.5 -3.3 1.1 -7.2 1.3 l-7.3 0.3 7.3 0.2 c6.5 0.2 7.2 0.4 7.2 2.2 0 1.8 -0.7 2 -8.5 2 l-8.5 0 0 -3.5z"/>
  <path d="M606 760.7 c0 -0.9 -2 -1.7 -5.5 -2.3 l-5.5 -0.9 -0.3 -118 c-0.4 -122.5 -0.4 -123.7 -5.3 -196.5 -0.9 -12.9 -1.8 -27.2 -2.1 -31.7 -1.8 -27.4 -2.3 9.2 -2.5 163 l-0.3 171.2 -3 0.3 c-1.7 0.2 -4.8 -0.4 -6.9 -1.3 l-3.9 -1.6 0.7 -5.3 c0.4 -3.8 0.9 -251.2 0.6 -332.8 0 -1.1 -0.8 -1.8 -2 -1.8 -1.1 0 -2 -0.4 -2 -1 0 -0.6 5.8 -1 15.5 -1 l15.4 0 -0.1 80.8 c0 49.5 0.4 86.1 1 94.7 0.6 7.7 1.4 19.1 1.8 25.3 0.3 6.2 0.9 11 1.3 10.7 0.3 -0.4 0.6 -39.4 0.6 -86.8 0 -76.6 0.2 -86.2 1.5 -86.5 1.3 -0.2 1.8 3.1 3.3 22 1 12.3 1.8 26.4 1.8 31.3 0 5 0.4 12.4 0.9 16.5 1.3 9.7 3 28.7 3.5 37 0.2 3.6 0.9 13 1.5 21 0.6 8 1.5 20.6 2 28 0.5 7.4 1.9 27.2 3.1 43.9 1.7 22.9 1.9 30.6 1.1 30.9 -0.9 0.3 -1.2 11.5 -1.2 43.7 l0 43.4 -7.2 0.4 c-5.3 0.2 -4 0.4 4.5 0.5 l11.7 0.2 -0.2 -7.7 -0.2 -7.8 -0.3 7.3 c-0.4 7 -0.5 7.2 -3 7.2 -1.9 0 -2.4 -0.4 -1.9 -1.6 0.3 -0.9 0.6 -7 0.6 -13.6 0 -9.1 0.3 -11.9 1.3 -11.6 0.6 0.3 1.3 1.5 1.5 2.9 0.7 6.5 1.4 8.6 3.7 11.3 2.1 2.4 2.5 4 2.5 8.8 0 8.6 -0.4 8.8 -15.4 8.8 -9.9 0 -12.6 -0.3 -12.6 -1.3z m-2.6 -5.1 c-0.6 -1.6 -3.4 -3 -4.2 -2.1 -0.8 0.7 1.9 3.5 3.4 3.5 0.7 0 1.1 -0.6 0.8 -1.4z m4.9 -5.3 c-0.7 -7.1 -1.1 -7.5 -1.2 -1 -0.1 3.1 0.3 5.7 0.8 5.7 0.5 0 0.6 -2.1 0.4 -4.7z m-25.5 -6.7 c-0.7 -0.8 -1.6 -1.2 -2 -0.9 -0.5 0.2 -0.8 -0.1 -0.8 -0.7 0 -0.6 -0.4 -0.9 -0.9 -0.5 -0.6 0.3 -1.4 -0.3 -2 -1.2 -0.6 -1 -1.1 -1.2 -1.1 -0.5 0 0.7 1.5 2.1 3.3 3.2 3.7 2.3 5.3 2.6 3.5 0.6z"/>
  <path d="M479 757.8 c0.1 -0.7 1.5 -2 3.3 -2.9 1.8 -0.8 6.1 -3.1 9.6 -5 6.4 -3.4 6.6 -3.4 18.5 -3.2 6.7 0.1 13.1 0.3 14.4 0.5 3.9 0.7 20.2 9.2 20.2 10.6 0 0.9 -7.3 1.2 -33 1.2 -25.8 0 -33 -0.3 -33 -1.2z m48 -5.3 c-3.8 -2.1 -5.9 -2.4 -14 -2.4 -7.9 0 -10.4 0.4 -15 2.4 l-5.5 2.4 19.5 0 19.5 0 -4.5 -2.4z"/>
  <path d="M416.6 755.4 c-1 -2.6 -0.5 -268.3 0.5 -287.4 0.6 -9.6 1.4 -24.5 2 -33 1.2 -19.2 1.3 -25.5 0.4 -30.2 -0.6 -3 -0.4 -3.7 1.2 -4.1 1.6 -0.4 1.6 -0.5 0.1 -0.6 -1.1 -0.1 -1.8 -0.9 -1.8 -2.1 0 -1.8 0.7 -2 7.5 -2 6.7 0 7.5 0.2 7.5 1.9 0 1.1 -0.8 2.2 -1.7 2.4 -1.7 0.4 -1.7 0.5 0 0.6 2.8 0.2 2.1 3.1 -0.8 3.1 l-2.5 0 0 174.9 0 174.9 -2.6 1.7 c-1.4 0.9 -2.8 1.5 -3 1.2 -0.2 -0.2 0.7 -1 2.1 -1.7 2.4 -1.3 3.5 -4 1.6 -4 -2.3 0 -4.3 1.5 -5.2 3.6 -1 2.7 -4.4 3.2 -5.3 0.8z"/>
  <path d="M438.6 742 c-0.3 -1.4 -0.5 -78.2 -0.4 -170.8 0.3 -159.6 0.2 -168.2 -1.4 -168.2 -1 0 -1.8 -0.4 -1.8 -1 0 -0.6 3.8 -1 9.5 -1 5.7 0 9.5 0.4 9.5 1 0 0.6 -0.7 1 -1.5 1 -1.3 0 -1.5 19.1 -1.5 165.5 0 146.4 0.2 165.5 1.5 165.5 1.1 0 1.5 1.1 1.5 4 0 4.3 -0.2 4.5 -6.5 5.4 l-4 0.5 2.8 -1.7 c2.9 -1.8 3.6 -4.2 1.2 -4.2 -0.8 0 -2.4 0.9 -3.5 2 -1.1 1.1 -2.4 2 -2.9 2 -0.5 0 -1.1 0.6 -1.4 1.3 -0.2 0.6 -0.7 0.1 -1.1 -1.3z"/>
  <path d="M562 736.5 c0 -0.8 -0.8 -1.5 -1.9 -1.5 -1 0 -2.6 -1.1 -3.5 -2.4 -0.8 -1.4 -2.6 -2.6 -3.8 -2.8 -1.7 -0.2 -2.4 -1 -2.6 -3.3 -0.1 -1.6 -0.3 -75.1 -0.5 -163.2 -0.2 -151.9 -0.3 -160.3 -1.9 -160.3 -1 0 -1.8 -0.4 -1.8 -0.9 0 -0.6 2.1 -1.2 4.8 -1.4 l4.7 -0.3 -4.7 -0.2 c-4.1 -0.2 -4.8 -0.5 -4.8 -2.2 0 -1.9 0.7 -2 10.5 -2 9.7 0 10.5 0.1 10.5 1.9 0 1.1 -0.8 2.2 -1.7 2.4 -1.7 0.4 -1.7 0.5 0 0.6 2.8 0.2 2.1 3.1 -0.8 3.1 l-2.5 0 0 159.2 c0 149.4 0.1 159.5 1.8 163.5 1.1 2.8 2.3 4.3 3.5 4.3 1.3 0 1.7 0.8 1.7 3.5 0 3.3 -0.2 3.5 -3.5 3.5 -2.4 0 -3.5 -0.5 -3.5 -1.5z m-2 -6.4 c-1.2 -2.3 -2.3 -3.1 -5 -3.6 -2.9 -0.6 -2.5 0.2 1.8 2.9 4.6 3 4.5 3 3.2 0.7z"/>
  <path d="M461 722.3 c0 -4.9 0 -78.4 0 -163.5 0 -154.4 0 -154.7 -2 -155.3 -2.8 -0.9 -2.5 -2.3 0.8 -2.8 l2.7 -0.4 -2.7 -0.2 c-2.1 -0.1 -2.8 -0.6 -2.8 -2.1 0 -2 0.7 -2 37.9 -2 29.4 0 38.1 0.3 38.5 1.3 0.5 1 0.7 1 1.2 0 0.3 -0.8 2.4 -1.3 5 -1.3 3.7 0 4.4 0.3 4.4 2 0 1.8 -0.8 2 -12.2 2.3 l-12.3 0.3 12.3 0.2 c7.3 0.1 12.2 0.6 12.2 1.2 0 0.6 -0.9 1 -2 1 l-2 0 0.2 159 0.3 159 -3.3 0 c-2.5 0 -3.5 -0.5 -3.9 -2 -0.3 -1.1 -1.1 -2 -1.8 -2 -0.8 0 -2.1 -0.7 -2.9 -1.6 -1.4 -1.3 -1.6 -5.9 -1.6 -34.5 0 -21.3 -0.4 -32.9 -1 -32.9 -0.5 0 -1 -1.6 -1 -3.5 0 -1.9 0.5 -3.5 1 -3.5 0.6 0 1 -5.7 1 -15 0 -9.3 -0.4 -15 -1 -15 -0.5 0 -1 -1.8 -1 -4 0 -2.5 0.5 -4 1.3 -4 0.9 0 1.1 -11.3 0.9 -54 -0.1 -34.5 -0.6 -54 -1.2 -54 -0.6 0 -1 -1.6 -1 -3.5 0 -1.9 0.5 -3.5 1 -3.5 0.7 0 1 -14.9 1 -42.6 l0 -42.7 -3.1 0.7 c-1.7 0.3 -3.8 0.6 -4.5 0.6 -1.2 0 -1.4 6.5 -1.4 38.5 l0 38.5 -6.5 0 -6.5 0 0 -39.1 0 -39.1 -3.1 0.6 c-1.7 0.3 -3.8 0.6 -4.5 0.6 -1.2 0 -1.4 6.4 -1.4 38 0 33.1 0.2 38 1.5 38 1.3 0 1.5 4 1.5 30 0 26 -0.2 30 -1.5 30 -1.3 0 -1.5 3.7 -1.5 27.5 0 23.8 0.2 27.5 1.5 27.5 1.3 0 1.5 3.5 1.5 25.4 0 14 0.3 26.1 0.6 27 0.3 0.9 1.2 1.6 2 1.6 0.9 0 1.4 1.2 1.4 3.5 0 3.3 -0.2 3.5 -3.5 3.5 l-3.5 0 0 25.5 c0 22 0.2 25.5 1.5 25.5 1.1 0 1.5 1.1 1.5 4 0 4.3 -0.2 4.5 -6.5 5.4 l-4 0.5 2.8 -2 c3 -2.3 3.5 -3.9 1.2 -3.9 -0.8 0 -1.5 0.5 -1.5 1 0 0.6 -0.7 1 -1.5 1 -0.8 0 -1.5 0.9 -1.5 2 0 2.4 -3.5 2.8 -4.4 0.4 -0.3 -0.9 -0.6 -71.3 -0.6 -156.4 0 -85.2 -0.4 -155.1 -0.8 -155.4 -0.4 -0.2 -2.6 -0.2 -4.7 0.1 l-4 0.5 0 161.3 0 161.3 -3.3 2.1 c-1.9 1.3 -3.6 2 -3.8 1.8 -0.3 -0.3 1.1 -1.4 3.1 -2.5 3.6 -2.2 4.6 -4.2 2 -4.2 -2.2 0 -8.5 4.3 -8.5 5.8 0 0.6 -0.4 1.2 -1 1.2 -0.6 0 -1 -3.6 -1 -8.7z m75 -7.3 c0 -0.5 -0.7 -1 -1.5 -1 -0.8 0 -1.5 -0.5 -1.5 -1.1 0 -0.5 -0.4 -0.7 -1 -0.4 -0.5 0.3 -1 0.1 -1 -0.6 0 -0.7 -0.3 -0.9 -0.7 -0.5 -0.4 0.4 0.3 1.6 1.7 2.6 2.8 2.2 4 2.5 4 1z m-52.7 -314.7 c-1.3 -0.2 -3.5 -0.2 -5 0 -1.6 0.2 -0.5 0.4 2.2 0.4 2.8 0 4 -0.2 2.8 -0.4z m23.5 0 c-1.5 -0.2 -4.2 -0.2 -6 0 -1.8 0.2 -0.6 0.4 2.7 0.4 3.3 0 4.8 -0.2 3.3 -0.4z"/>
  <path d="M624 725.4 c0 -3.1 2.3 -2.8 2.8 0.4 0.2 1.5 -0.2 2.2 -1.2 2.2 -1.1 0 -1.6 -0.9 -1.6 -2.6z"/>
  <path d="M515 707.5 c0 -0.8 -0.4 -1.5 -1 -1.5 -0.5 0 -1 0.5 -1 1 0 0.6 -1.5 1 -3.4 1 -2.6 0 -3.5 -0.5 -4 -2.2 -0.3 -1.3 -0.6 -14.3 -0.6 -29 l0 -26.8 7.5 0 7.5 0 0 3.5 c0 1.9 -0.4 3.5 -1 3.5 -0.6 0 -1 8.2 -1 22.5 0 21.8 0.1 22.5 2 22.5 1.6 0 2 0.7 2 3.5 0 3.3 -0.2 3.5 -3.5 3.5 -2.4 0 -3.5 -0.5 -3.5 -1.5z m0.8 -3.9 c-0.7 -0.7 -2.2 -1 -3.5 -0.8 -3.4 0.6 -2.8 1.7 1.2 1.9 2.7 0.1 3.2 -0.1 2.3 -1.1z"/>
  <path d="M501 596.6 c0 -2.6 0.5 -3.6 2 -4.1 1.9 -0.6 2 -1.5 2 -28 0 -31.1 -0.9 -28.5 9.6 -28.5 l6.4 0 0 3.4 c0 2.1 -0.6 3.6 -1.5 4 -1.3 0.5 -1.5 4.1 -1.5 24.6 l0 24 3 0 c3.3 0 4.3 2.5 1.3 3.3 -1.7 0.4 -1.7 0.5 0 0.6 1 0.1 1.7 0.9 1.7 2.1 0 1.9 -0.7 2 -11.5 2 l-11.5 0 0 -3.4z"/>
  <path d="M506 483 c0 -0.5 2.5 -1 5.5 -1 3 0 5.5 0.5 5.5 1 0 0.6 -2.5 1 -5.5 1 -3 0 -5.5 -0.4 -5.5 -1z"/>
  <path d="M603 434.1 c0 -3 0.4 -4.1 1.5 -4.1 0.9 0 1.5 1 1.5 2.6 0 1.4 -0.7 3.2 -1.5 4 -1.3 1.4 -1.5 1.1 -1.5 -2.5z"/>
  <path d="M435 398 c0 -1.9 0.7 -2 9.5 -2 8.8 0 9.5 0.1 9.5 2 0 1.9 -0.7 2 -9.5 2 -8.8 0 -9.5 -0.1 -9.5 -2z"/>
  <path d="M568 398 c0 -1.9 0.7 -2 13 -2 8 0 13 0.4 13 1 0 0.6 1.9 1.1 4.3 1.1 l4.2 0.2 -5 0.7 c-2.7 0.5 -10.5 0.9 -17.2 0.9 -11.7 0.1 -12.3 0 -12.3 -1.9z"/>
  <path d="M584.4 388.8 c0.3 -2.9 0.6 -10.6 0.6 -17 l0 -11.8 9.5 0 9.5 0 0 4.5 c0 2.5 -0.4 4.5 -1 4.5 -0.5 0 -1 2.3 -1 5 0 2.8 0.5 5 1 5 0.6 0 1 2.8 1 6.5 l0 6.5 -6.5 0 c-3.7 0 -6.5 0.4 -6.5 1 0 0.6 -1.6 1 -3.6 1 l-3.7 0 0.7 -5.2z m16.3 -12.8 l0.1 -14 -6.9 0 -6.9 0 0 14 0 14 6.8 0 6.7 0 0.2 -14z"/>
  <path d="M588 376 l0 -13 5.5 0 c5.2 0 5.5 0.1 5.5 2.5 0 1.4 -0.6 2.5 -1.2 2.5 -0.9 0 -0.8 0.4 0.2 1 1.3 0.9 1.3 1 0 1 -1.3 0 -1.3 0.1 0 1 1.3 0.9 1.3 1 0 1 -1.2 0 -1.3 0.2 -0.1 0.9 1.1 0.7 1.1 0.9 0 1.4 -1.1 0.4 -1.1 0.6 0.1 0.6 1.3 0.1 1.3 0.2 0 1.1 -1 0.6 -1.1 1 -0.2 1 0.8 0 1.2 1.9 1.2 6 l0 6 -5.5 0 -5.5 0 0 -13z"/>
  <path d="M459 391 c0 -0.5 1.3 -1 2.9 -1 1.7 0 3.3 0.5 3.6 1 0.4 0.6 -0.8 1 -2.9 1 -2 0 -3.6 -0.4 -3.6 -1z"/>
  <path d="M501 387.5 c0 -3.2 0.4 -4.5 1.4 -4.5 0.8 0 1.7 0.8 1.9 1.8 0.4 1.6 0.5 1.6 0.6 0 0.2 -3.2 3.1 -2.1 3.1 1.1 0 2.3 -0.5 3.1 -2.2 3.4 l-2.3 0.4 2.3 0.2 c3.6 0.2 2.5 2.1 -1.3 2.1 -3.5 0 -3.5 0 -3.5 -4.5z"/>
  <path d="M514 391 c0 -0.5 1.6 -1 3.5 -1 1.9 0 3.5 0.5 3.5 1 0 0.6 -1.6 1 -3.5 1 -1.9 0 -3.5 -0.4 -3.5 -1z"/>
  <path d="M541 391 c0 -0.5 1.6 -1 3.5 -1 1.9 0 3.5 0.5 3.5 1 0 0.6 -1.6 1 -3.5 1 -1.9 0 -3.5 -0.4 -3.5 -1z"/>
  <path d="M528 387.5 c0 -2.7 0.4 -3.5 1.8 -3.5 1.3 0 1.8 0.8 1.7 2.8 0 1.9 0.6 2.9 2 3.4 1.4 0.4 0.9 0.6 -1.7 0.7 -3.7 0.1 -3.8 0 -3.8 -3.4z"/>
  <path d="M459 379.1 c0 -6 -0.4 -10.2 -1.1 -10.6 -0.6 -0.4 -2.6 -0.4 -4.5 -0.1 -2.5 0.5 -3.4 1.2 -3.4 2.6 0 1.1 -0.4 2 -1 2 -0.5 0 -1 -2 -1 -4.5 l0 -4.5 6.9 0 c5.4 0 7 0.4 7.5 1.6 0.3 0.9 0.6 6.5 0.6 12.5 0 10.2 -0.1 10.9 -2 10.9 -1.9 0 -2 -0.7 -2 -9.9z"/>
  <path d="M487 379 c0 -11 0.4 -10.4 -6.7 -10 -2.7 0.1 -3.3 -0.2 -3.3 -1.9 0 -1.1 0.5 -2.3 1.2 -2.7 1.8 -1.1 11.2 -0.4 12 0.9 0.4 0.7 0.8 6.3 0.8 12.5 0 10.5 -0.1 11.2 -2 11.2 -1.9 0 -2 -0.7 -2 -10z"/>
  <path d="M513.8 378.8 l-0.3 -10.3 -4.2 0.3 c-4 0.4 -4.3 0.2 -4.3 -2.2 0 -2.4 0.3 -2.6 4.9 -2.6 8.3 0 8.1 -0.3 8.1 13.1 0 11.2 -0.1 11.9 -2 11.9 -1.8 0 -2 -0.8 -2.2 -10.2z"/>
  <path d="M533 386.5 c0 -1.4 0.5 -2.5 1 -2.5 0.6 0 1 1.1 1 2.5 0 1.4 -0.4 2.5 -1 2.5 -0.5 0 -1 -1.1 -1 -2.5z"/>
  <path d="M541 385 c0 -2.9 0.4 -4 1.5 -4 0.8 0 1.5 0.6 1.6 1.3 0 0.6 0.3 2.4 0.5 4 0.4 2.2 0.1 2.7 -1.6 2.7 -1.7 0 -2 -0.6 -2 -4z"/>
  <path d="M570 378.4 l0 -10.7 -5.6 0.7 c-5.3 0.6 -5.5 0.6 -5.2 -1.6 0.3 -2.1 0.8 -2.3 7.3 -2.3 l7 0 0.3 12.3 c0.2 11.7 0.2 12.2 -1.8 12.2 -1.9 0 -2 -0.6 -2 -10.6z"/>
  <path d="M430 372.6 c0 -2.8 -0.4 -3.5 -2.5 -4 -1.6 -0.4 -2.5 -1.3 -2.5 -2.6 0 -2.2 2.3 -2.6 6.4 -1 2.3 0.8 2.6 1.5 2.6 6 0 4.3 -0.3 5 -2 5 -1.6 0 -2 -0.7 -2 -3.4z"/>
  <path d="M443 367.6 c0 -4 0.4 -5.5 1.6 -6 0.9 -0.3 5.9 -0.5 11.2 -0.4 l9.7 0.2 -9.5 0.5 -9.5 0.6 0.3 5.3 c0.2 4.7 0.1 5.2 -1.8 5.2 -1.8 0 -2 -0.6 -2 -5.4z"/>
  <path d="M528 368.5 c0 -2.5 0.5 -4.5 1 -4.5 0.6 0 1 -0.9 1 -2 0 -2.2 2.1 -2.4 12 -1 5.5 0.7 5.4 0.7 -2.7 0.9 l-8.1 0.1 0.4 5.5 c0.5 5 0.4 5.5 -1.5 5.5 -1.8 0 -2.1 -0.6 -2.1 -4.5z"/>
  <path d="M533 367.9 c0 -4.3 0.3 -5 1.6 -4.5 0.9 0.3 3.3 0.6 5.5 0.6 3.5 0 3.9 0.2 3.9 2.6 0 2.1 -0.4 2.5 -2.7 2.3 -5 -0.4 -6.3 0 -6.3 2.1 0 1.1 -0.4 2 -1 2 -0.5 0 -1 -2.3 -1 -5.1z"/>
  <path d="M474 365.5 c0 -4.9 2.5 -5.9 12 -4.7 l7.5 0.9 -8.7 0.2 -8.8 0.1 0 3.5 c0 1.9 -0.4 3.5 -1 3.5 -0.5 0 -1 -1.6 -1 -3.5z"/>
  <path d="M502 365 l0 -4 8.8 0.2 8.7 0.2 -7.7 0.3 -7.8 0.4 0 3.4 c0 1.9 -0.4 3.5 -1 3.5 -0.5 0 -1 -1.8 -1 -4z"/>
  <path d="M556.2 365.3 l0.3 -3.8 10 -0.1 10 0 -9.2 0.3 -9.3 0.4 0 3.4 c0 1.9 -0.5 3.5 -1.1 3.5 -0.6 0 -0.9 -1.6 -0.7 -3.7z"/>
  <path d="M422 364.5 l0 -3.5 5.8 0.2 c5.6 0.2 5.6 0.2 1 0.5 -4.6 0.4 -4.8 0.6 -4.8 3.4 0 1.6 -0.4 2.9 -1 2.9 -0.5 0 -1 -1.6 -1 -3.5z"/>
  <path d="M419 354 c0 -1.4 0.7 -2 2.3 -2 l2.2 -0.1 -2.2 -1.8 c-2.2 -1.8 -2.2 -2 -1.9 -32.2 0.2 -16.7 0.7 -31.7 1.1 -33.4 0.9 -3.1 3.9 -6.7 6.8 -7.8 1.3 -0.5 1.7 -0.1 1.7 1.7 0 1.4 -0.6 2.6 -1.2 2.8 -1 0.4 -1.4 8.2 -1.6 33.6 l-0.3 33.2 2.6 0 c2.9 0 3.5 2.6 0.8 3.3 -1.7 0.4 -1.7 0.5 0 0.6 1 0.1 1.7 0.9 1.7 2.1 0 1.8 -0.7 2 -6 2 -5.3 0 -6 -0.2 -6 -2z"/>
  <path d="M435 354.1 c0 -1.1 0.8 -2.2 1.8 -2.4 1.6 -0.4 1.6 -0.5 0 -0.6 -2.4 -0.1 -2.3 -3.1 0.1 -3.1 1.5 0 1.9 -1 2.3 -6.2 0.3 -3.7 1.5 -8.1 2.8 -10.5 2 -3.9 2.5 -4.3 6.1 -4.3 l3.9 0 0 10.5 0 10.5 4.4 0 4.5 0 0.3 -29.2 c0.3 -27.5 0.4 -29.5 2.3 -32 1.5 -2.1 2.9 -2.7 5.6 -2.8 l3.7 0 0.5 10.8 c0.3 5.9 0.5 11.8 0.5 13.2 -0.1 1.4 -0.1 10.9 0 21.3 l0.2 18.7 4.5 0 4.5 0 0 -39.6 c0 -25 0.4 -40.2 1 -41.4 2.1 -3.9 6.1 -7 9 -7 l3 0 0 44 0 44 4.5 0 4.5 0 0 -15.1 0 -15.1 -3 -3 c-2.2 -2.1 -3 -3.9 -3 -6.4 0 -1.9 0.3 -3.4 0.8 -3.4 0.4 0 2.2 1.4 4 3.1 2.9 2.7 3.8 3 8 2.7 2.6 -0.3 5.6 -0.8 6.7 -1.2 l2 -0.8 -2 1.7 c-1.2 1.1 -1.4 1.6 -0.5 1.3 1.9 -0.6 9 -10.8 8.9 -12.8 0 -0.8 -0.7 -0.1 -1.5 1.7 -1.9 4.5 -7.6 8.5 -12.7 9 -3.6 0.4 -4.8 0.1 -7.3 -2.1 -2.7 -2.4 -2.8 -2.5 -0.7 -2.6 1.2 0 2.9 0.7 3.8 1.6 1.4 1.4 2.1 1.4 6 0.3 3.7 -1.1 4.8 -2 5.7 -4.6 0.7 -1.8 1.6 -3.3 2 -3.3 0.4 0 0.8 -1.8 0.8 -4 0 -3.3 0.3 -4 2 -4 2 0 2 -0.7 2 -30.9 l0 -30.9 -4.2 -3.6 -4.3 -3.5 -0.5 29.2 -0.5 29.2 -6.2 0.3 -6.3 0.3 0 -22.5 c0 -15.1 0.4 -23.4 1.2 -25.1 0.9 -1.9 0.9 -2.8 0 -3.7 -0.7 -0.7 -1.2 -4 -1.2 -7.6 0 -5.8 0.3 -6.7 2.8 -8.8 2.6 -2.3 9.2 -3.4 9.2 -1.6 0 0.4 1.2 1.5 2.8 2.5 1.5 0.9 4.5 3.3 6.7 5.2 2.2 2 7.3 6.1 11.3 9.1 4 3.1 8.3 6.6 9.5 7.8 1.2 1.2 3.8 3.2 5.7 4.6 1.9 1.3 3.7 2.7 4 3 0.3 0.3 2.1 1.7 4.2 3.2 2 1.5 4.2 3.4 5 4.1 0.7 0.7 2.9 2.4 4.8 3.7 1.9 1.3 4.1 3 4.8 3.7 0.8 0.7 3 2.6 5 4.1 2.1 1.5 4.4 3.4 5.2 4.2 0.8 0.9 2.6 2.4 4 3.4 l2.5 1.8 -2.3 -0.5 c-2.3 -0.5 -2.3 -0.5 -0.7 1.3 0.9 1 3.2 2.6 5.1 3.5 1.9 0.9 3.9 2.8 4.5 4.1 0.5 1.4 0.9 15.7 0.9 31.8 0 32.3 0.3 35.6 3.1 35.6 1.1 0 1.9 0.7 1.9 1.5 0 1.2 -1.8 1.5 -9.2 1.7 l-9.3 0.2 10 0.5 c8.4 0.5 10 0.9 10.3 2.4 0.3 1.6 -1.1 1.7 -18.7 1.7 -18.2 0 -19.1 -0.1 -19.1 -1.9 0 -1.1 0.8 -2.2 1.8 -2.4 1.6 -0.4 1.6 -0.5 0 -0.6 -2.2 -0.1 -2.4 -3.1 -0.3 -3.1 1.3 0 1.5 -5.3 1.5 -41.4 l0 -41.4 -4.5 -3.6 -4.5 -3.7 0 45 0 45.1 2.5 0 c2.9 0 3.5 2.6 0.8 3.3 -1.7 0.4 -1.7 0.5 0 0.6 1 0.1 1.7 0.9 1.7 2.1 0 1.9 -0.7 2 -23 2 -22.1 0 -23 -0.1 -23 -1.9 0 -1.2 0.8 -2.1 2.3 -2.4 l2.2 -0.4 -2.2 -0.2 c-2.8 -0.1 -3.1 -2.1 -0.4 -2.1 1 0 2.2 -0.7 2.5 -1.6 0.3 -0.9 0.6 -9.3 0.6 -18.8 l0 -17.3 -4.5 4.1 -4.5 4.2 0 14.9 c0 16.2 -0.5 19.5 -2.6 19.5 -0.8 0 -1.4 0.5 -1.4 1 0 0.6 -13.8 1 -39.5 1 -38.3 0 -39.5 -0.1 -39.5 -1.9z m13.1 -2.1 c0.6 0 0.7 -0.4 0.4 -1 -0.7 -1.2 -5.5 -1.3 -5.5 -0.2 0 1.5 1.3 2.3 2.8 1.7 0.7 -0.3 1.8 -0.5 2.3 -0.5z m22 0 c0.5 0 0.9 -0.4 0.9 -1 0 -0.5 -1.3 -1 -3 -1 -2.9 0 -3.8 0.9 -2.3 2.4 0.4 0.3 1.3 0.4 2.1 0.1 0.7 -0.3 1.8 -0.5 2.3 -0.5z m89.9 -1.1 c0 -0.5 -1.1 -0.9 -2.5 -0.9 -2.4 0 -3.2 1 -1.9 2.2 0.8 0.8 4.4 -0.3 4.4 -1.3z m-101.2 0.4 c-1 -0.2 -2.6 -0.2 -3.5 0 -1 0.3 -0.2 0.5 1.7 0.5 1.9 0 2.7 -0.2 1.8 -0.5z m22 0 c-1 -0.2 -2.6 -0.2 -3.5 0 -1 0.3 -0.2 0.5 1.7 0.5 1.9 0 2.7 -0.2 1.8 -0.5z m23 0 c-1 -0.2 -2.6 -0.2 -3.5 0 -1 0.3 -0.2 0.5 1.7 0.5 1.9 0 2.7 -0.2 1.8 -0.5z m11 0 c-1 -0.2 -2.6 -0.2 -3.5 0 -1 0.3 -0.2 0.5 1.7 0.5 1.9 0 2.7 -0.2 1.8 -0.5z m33 0 c-1 -0.2 -2.6 -0.2 -3.5 0 -1 0.3 -0.2 0.5 1.7 0.5 1.9 0 2.7 -0.2 1.8 -0.5z m2.2 -53.1 c0 -54.4 0.4 -50.8 -6.2 -55.7 l-3.8 -2.7 0 53.4 c0 29.4 0.3 53.8 0.7 54.1 0.3 0.4 2.6 0.7 5 0.7 l4.3 0 0 -49.8z m-33 -19.2 c0 -0.5 -0.3 -1 -0.7 -1.1 -0.5 0 -2.2 -0.2 -4 -0.5 -2.5 -0.3 -3.1 -0.1 -2.7 1.1 0.7 1.7 7.4 2.1 7.4 0.5z"/>
  <path d="M439 277.5 c0 -2.5 -0.4 -4.5 -1 -4.5 -0.5 0 -1 0.5 -1 1 0 0.6 -1.3 1 -3 1 -1.6 0 -3 -0.2 -3 -0.5 0 -1 4.8 -5.5 5.8 -5.5 0.5 0 2.3 -1.3 4 -3 1.8 -1.6 3.6 -3 4 -3 0.5 0 2.2 -1.3 3.8 -2.8 4.2 -3.9 6.4 -4.7 6.4 -2.1 0 1.1 -0.7 2.7 -1.5 3.5 -1 1.1 -1.5 3.7 -1.5 8.5 0 6.4 -0.2 7.2 -2.7 9.4 -1.9 1.6 -4 2.4 -6.5 2.5 l-3.8 0 0 -4.5z"/>
  <path d="M460.7 262.3 c-0.4 -0.3 -0.7 -2.1 -0.7 -4 0 -2.3 -0.5 -3.3 -1.5 -3.3 -0.8 0 -1.5 -0.3 -1.5 -0.6 0 -0.9 5.3 -5.4 6.3 -5.4 0.5 0 2.6 -1.8 4.7 -4 2.1 -2.2 4.3 -4 4.8 -4 0.5 0 2.2 -1.2 3.8 -2.8 1.6 -1.5 4.5 -3.8 6.4 -5.2 1.9 -1.3 4.2 -3.2 5.1 -4.2 0.9 -1 2.1 -1.8 2.6 -1.8 0.5 0 1.8 -0.9 3 -1.9 l2 -1.9 0.7 9.4 c0.6 9.4 0.6 9.5 -2.1 11.9 -2 1.7 -4 2.4 -7 2.5 l-4.3 0 0 -4 c0 -2.2 -0.4 -4 -1 -4 -0.5 0 -1 0.5 -1 1 0 0.6 -1.3 1 -3 1 -1.6 0 -3 0.3 -3.1 0.8 -1.3 15.6 -1.7 17.5 -4 19.3 -2.3 1.8 -8.9 2.6 -10.2 1.2z"/>
 </g>
 <g fill="#e84d52">
  <path d="M483 866.5 c0 -0.8 -0.7 -1.5 -1.5 -1.5 -0.8 0 -1.5 -0.5 -1.5 -1.1 0 -1.2 -110.3 -0.6 -137.7 0.7 l-13.3 0.7 0 -4.2 0 -4.2 15.3 0.3 15.2 0.3 -0.1 -25 c-0.1 -13.7 -0.2 -25.6 -0.3 -26.2 -0.1 -1 -4 -1.3 -16.1 -1.3 l-16 0 0 -3.2 c0 -1.8 0.3 -4.2 0.6 -5.3 0.5 -2 1.2 -2 71.7 -1.7 39.2 0.2 74 0 77.5 -0.3 5.7 -0.6 6.3 -0.9 6 -2.8 l-0.3 -2.2 -27.4 0.3 c-15 0.2 -28.5 0.1 -29.9 -0.3 -2.2 -0.5 -1.7 -1.1 5.9 -5.5 l8.4 -5 71.9 0 71.9 0 7.8 4.6 c4.4 2.6 7.9 5 7.9 5.3 0 0.3 -12.8 0.5 -28.5 0.3 l-28.5 -0.3 0.1 5.8 c0.1 5 0.2 5.4 1 2.8 l0.8 -3 41.3 0.7 c49.7 0.8 83.6 2.1 86.3 3.3 2.9 1.2 7.5 4.7 7.5 5.7 0 0.4 -2.7 0.8 -5.9 0.8 -3.7 0 -6.3 0.5 -6.8 1.3 -0.4 0.6 -0.8 12.3 -0.9 26 l-0.1 24.7 4.3 0 c5.9 0 6.3 1.5 1.2 4.2 l-4.3 2.3 -61.5 -0.4 c-33.8 -0.2 -61.7 -0.5 -61.9 -0.7 -0.2 -0.2 -0.1 -1.5 0.3 -2.9 l0.6 -2.5 44.4 0.2 c44 0.3 44.4 0.3 43.6 -1.7 -0.4 -1.1 -0.7 -12.3 -0.8 -25 0 -12.6 -0.1 -23.6 -0.1 -24.2 -0.1 -1 -9.6 -1.3 -44 -1.3 l-44 0 -0.4 -2.2 c-0.2 -1.3 -0.4 1.3 -0.5 5.7 0 6.6 0.1 7.4 0.9 4.7 l1 -3.2 42.7 0.2 42.7 0.3 0.3 5.3 0.3 5.2 -43.7 0 c-43.1 0 -43.6 0 -43.1 -2 0.3 -1.1 0.1 -2 -0.4 -2 -0.5 0 -0.9 3.5 -0.8 7.8 0.1 6.5 0.2 7.2 1 4.5 l0.9 -3.2 43 0.2 43 0.2 0 5.3 0 5.2 -43.4 0 -43.5 0 -0.4 -2.2 c-0.3 -1.3 -0.5 1.1 -0.5 5.2 -0.1 23.5 -0.2 26 -1.3 26 -0.9 0 -1 -2.2 -0.6 -7.5 0.4 -4.7 0.3 -7.5 -0.3 -7.5 -1.4 0 -1.3 -6.7 0.1 -7.2 0.8 -0.3 0.7 -2.1 -0.1 -6.3 -0.8 -4 -0.9 -7.2 -0.3 -9.5 0.6 -2.1 0.6 -5 0 -7.6 -0.6 -2.5 -0.6 -5.6 0 -8 0.5 -2.4 0.5 -5.5 0 -8 -0.6 -2.5 -0.6 -5.6 0 -8 0.7 -3.3 0.6 -4.2 -1.1 -6.1 -1.9 -2.3 -2.3 -2.3 -26.1 -2.3 -17.4 0 -24.4 0.3 -25.3 1.2 -0.9 0.9 -1.2 11.2 -1.2 40 0 33.8 -0.2 38.8 -1.5 38.8 -0.8 0 -1.5 -0.7 -1.5 -1.5z m-90.4 -8 c1.6 -1.2 8.8 -1.4 46.2 -1.5 38.1 0 44.2 -0.2 44.2 -1.5 0 -3.3 -3.7 -3.5 -46.5 -3.5 l-42.5 0.1 -0.6 2.5 c-0.3 1.3 -1.6 3.1 -2.7 3.9 -1.2 0.8 -1.7 1.5 -1.1 1.5 0.6 0 1.9 -0.7 3 -1.5z m-2.2 -24.2 c0 -11.7 0.3 -21.3 0.8 -21.3 1.6 0 0.7 -3.2 -1.4 -5.1 -1.9 -1.5 -4 -1.8 -13.3 -1.9 -7.4 0 -11.5 0.4 -12.3 1.2 -0.7 0.7 -1.2 3.8 -1.2 6.9 0 3.6 -0.5 5.9 -1.2 6.3 -1 0.5 -1 0.7 0 1.2 0.9 0.4 1.2 4.8 1.2 16.9 0 12.1 0.3 16.5 1.3 16.9 0.6 0.2 6.8 0.4 13.7 0.3 l12.5 -0.2 -0.1 -21.2z m270.9 20.5 c2.6 -1.3 3.7 -3.8 1.7 -3.8 -0.5 0 -1 -1.6 -1 -3.5 0 -1.9 0.5 -3.5 1 -3.5 0.6 0 1 -1.8 1 -4 0 -2.2 -0.4 -4 -1 -4 -1.5 0 -1.3 -23.7 0.2 -24.2 0.7 -0.3 0.3 -1.4 -1.2 -3.1 -2.3 -2.6 -2.6 -2.7 -13.5 -2.7 -10.6 0 -11.2 0.1 -13.3 2.5 -2.4 2.7 -2.8 4.5 -1.2 4.5 0.6 0 1 1.6 1 3.5 0 1.9 -0.4 3.5 -1 3.5 -0.5 0 -1 2 -1 4.5 0 2.5 0.5 4.5 1 4.5 0.6 0 1 1.6 1 3.5 0 1.9 -0.4 3.5 -1 3.5 -0.5 0 -1 1.8 -1 4 0 2.2 0.5 4 1 4 0.6 0 1 1.8 1 4 0 2.2 -0.4 4 -1 4 -1.8 0 -1 1.7 1.3 2.8 3.1 1.5 22.7 1.5 26 0z m-222.5 -12.6 l44.2 -0.2 0 -2.8 0 -2.7 -44.4 0.3 c-42 0.3 -44.5 0.2 -44.9 -1.5 -0.3 -1 -0.5 1.4 -0.5 5.2 0 4.3 0.3 6 0.7 4.5 l0.7 -2.5 44.2 -0.3z m-26.8 -15.9 c9.6 -0.1 29.6 -0.2 44.3 -0.3 l26.8 0 -0.3 -2.2 -0.3 -2.3 -44 -0.3 -44.1 -0.2 0.6 -5.3 0.5 -5.2 43.8 0 43.7 0 0 -2.7 0 -2.8 -44.4 0 c-37.3 0 -44.5 0.2 -44.9 1.4 -0.3 0.8 -0.6 6.7 -0.5 13.3 0 6.5 0.3 10.7 0.7 9.3 l0.7 -2.5 17.4 -0.2z m127 -42.3 c0 -0.5 -1.1 -1 -2.5 -1 -1.4 0 -2.5 0.5 -2.5 1 0 0.6 1.1 1 2.5 1 1.4 0 2.5 -0.4 2.5 -1z"/>
  <path d="M341.3 852.3 l-13.3 -0.4 0 -4.9 0 -5 15 0 15 0 0 5.5 c0 4.7 -0.3 5.5 -1.7 5.3 -1 -0.1 -7.8 -0.4 -15 -0.5z"/>
  <path d="M544 847 l0 -5 43 0 43 0 0 5 0 5 -43 0 -43 0 0 -5z"/>
  <path d="M667 847 l0 -5 9 0 9 0 -1.5 3.7 c-2.5 5.9 -3.2 6.3 -10.1 6.3 l-6.4 0 0 -5z"/>
  <path d="M328 831.5 l0 -5.5 15 0 15 0 0 5.5 0 5.5 -15 0 -15 0 0 -5.5z"/>
  <path d="M667 831.5 l0 -5.5 9 0 c5 0 9.3 0 9.8 0 0.4 0 0.7 2.4 0.7 5.3 l0 5.2 -9.7 0.3 -9.8 0.3 0 -5.6z"/>
  <path d="M328 815.6 l0 -5.5 15 0 15 -0.1 0 5.5 0 5.5 -15 0 -15 0 0 -5.4z"/>
  <path d="M667 815.8 l0 -5.3 8 -0.3 c8.8 -0.4 8.7 -0.5 10.5 7.6 l0.7 3.2 -9.6 0 -9.6 0 0 -5.2z"/>
  <path d="M329 787 c0 -2 0.7 -2 38.5 -2 32.1 0 38.5 0.2 38.5 1.4 0 0.7 -1 1.6 -2.2 2 -1.3 0.3 -18.6 0.6 -38.5 0.6 -35.6 0 -36.3 0 -36.3 -2z"/>
  <path d="M453.3 772.4 c0.3 -0.3 3.6 -2.5 7.4 -4.7 l6.8 -4.2 42.9 -0.2 43 -0.2 8.3 4.5 c4.6 2.5 8.3 4.8 8.3 5 0 0.2 -26.4 0.4 -58.7 0.4 -32.2 0 -58.4 -0.3 -58 -0.6z"/>
  <path d="M447 767.6 c0 -2.3 0.4 -2.6 3.5 -2.6 5.3 0 4.6 1.3 -2.7 4.8 -0.5 0.2 -0.8 -0.8 -0.8 -2.2z"/>
  <path d="M394 761 c0 -0.5 -0.7 -1 -1.5 -1 -1.2 0 -1.5 -1.3 -1.5 -5.5 0 -4.3 0.5 -5.8 2.2 -7.5 1.2 -1.1 2.5 -2 2.9 -2 0.4 0 1 -1.7 1.2 -3.7 0.2 -2.1 0.4 0.6 0.5 6 0.2 8 -0.1 9.7 -1.3 9.7 -0.8 0 -1.5 0.4 -1.5 0.9 0 0.9 22 0.4 22.9 -0.5 0.2 -0.2 -2.8 -0.4 -6.7 -0.4 l-7.2 0 -0.2 -27.7 c-0.3 -46.6 0.2 -82.1 1.2 -96.3 0.6 -7.4 1.5 -19.8 2 -27.5 0.6 -7.7 1.5 -19.8 2 -27 0.5 -7.1 1.4 -19.5 2 -27.5 0.5 -8 1.4 -20.3 2 -27.5 1.6 -20 2.9 -40.5 3.8 -57.2 0.4 -8.3 1 -15.5 1.4 -15.9 0.5 -0.4 0.8 67.3 0.8 150.4 0 137.1 0.1 151.2 1.6 152.7 1.4 1.3 1.4 1.8 0.2 3.2 -0.9 1.2 -0.1 1 3 -0.7 3.8 -2.2 5.7 -5 3.2 -5 -0.7 0 -1 -59 -1 -175 l0 -175 7.8 0 7.8 0 -0.2 168.8 c-0.1 98.3 0.2 169.4 0.8 170.5 0.6 1.2 0.5 1.7 -0.7 1.7 -0.8 0 -1.5 0.9 -1.5 2.1 0 2.2 0.1 2.2 6.8 -2.3 4.3 -3 5.4 -4.8 2.7 -4.8 -1.3 0 -1.5 -19.3 -1.5 -168 l0 -168 8 0 8 0 -0.2 165.4 c-0.3 151.5 -0.2 165.3 1.3 164.5 1.3 -0.7 1.5 -0.4 1.1 1.8 -0.3 1.8 -2.3 3.7 -6.6 6.4 -3.3 2.1 -6.7 3.9 -7.3 3.9 -0.7 0 -1.3 0.5 -1.3 1 0 0.6 -1.8 1 -3.9 1 -3.3 0 -4 0.4 -4.3 2.2 -0.4 2.9 -10 8.8 -14.3 8.8 -2.2 0 -3.3 0.6 -4 2.2 -0.6 1.2 -2.1 2.5 -3.5 2.9 -4.1 1.1 -27 1 -27 -0.1z"/>
  <path d="M602.8 761.3 c-2.2 -0.3 -2.8 -1 -2.8 -2.9 0 -2.1 -0.4 -2.4 -3.7 -2.4 -2.6 0 -5.8 -1.2 -9.8 -3.6 -6.5 -3.9 -7.5 -4.9 -7.5 -7.7 0 -1.5 0.3 -1.6 2.1 -0.7 1.1 0.7 2.3 0.9 2.7 0.6 0.3 -0.3 0 -0.6 -0.6 -0.6 -0.9 0 -1.2 -41.5 -1.2 -171.5 l0 -171.5 3.9 0 3.8 0 0.6 7.8 c7.2 105.4 7 99.2 7.4 224.9 0.3 75.3 0.1 116.8 -0.5 118 -0.8 1.4 -0.4 2.1 1.9 3.5 1.6 1 3.4 1.8 3.9 1.8 0.6 0 1 -15.2 1 -41.4 0 -40.6 1.1 -54.1 2.4 -30.8 1.5 25 4.7 63.9 5.6 67.2 1.4 4.9 1.4 5 -2.2 5 -4.5 0 -1.6 1.9 3.2 2.1 2.4 0.1 2.8 0.3 1.3 0.6 -1.3 0.2 -2.3 0.9 -2.3 1.4 0 0.9 -4 1 -9.2 0.2z"/>
  <path d="M481 757.1 c0 -0.5 3.9 -2.8 8.8 -5.2 8.3 -4.2 9.2 -4.4 19.1 -4.7 5.7 -0.2 12.3 -0.1 14.6 0.2 3.6 0.6 15.7 6.8 18.9 9.7 0.6 0.5 -12.4 0.9 -30.2 0.9 -17.7 0 -31.2 -0.4 -31.2 -0.9z"/>
  <path d="M477 750.5 c0 -2.2 0.4 -2.5 3.5 -2.5 4.3 0 4.4 1 0.6 3.3 -3.8 2.2 -4.1 2.2 -4.1 -0.8z"/>
  <path d="M564.3 738.7 c-2.8 -1.8 -5.6 -4.2 -6.2 -5.4 -0.8 -1.7 -1.9 -2.3 -4.1 -2.3 -1.7 0 -4.3 -0.8 -5.8 -1.9 -1.5 -1 -5 -3.3 -7.9 -5 -2.9 -1.8 -5.5 -4.2 -5.8 -5.3 -0.8 -2.4 0 -3.4 1.7 -2 1.1 0.8 1.3 -29.1 1 -157.4 l-0.2 -158.4 7.7 0 7.8 0 0.2 140.3 c0.1 77.1 0.2 150.4 0.2 162.9 l0.1 22.8 4 2.5 c5 3.2 5.4 3.1 3.5 -0.5 -1.3 -2.6 -1.5 -21.7 -1.5 -165.5 l0 -162.5 8.3 0 8.2 0 -0.2 168.7 c-0.1 130.7 -0.5 168.9 -1.4 169.2 -0.7 0.2 -0.2 0.9 1.2 1.7 2.3 1.3 2.3 1.3 -1.6 1.3 -2.8 0 -5.6 -1 -9.2 -3.2z"/>
  <path d="M471.6 726.9 c1.5 -1.7 1.6 -2.2 0.4 -2.9 -1.3 -0.8 -1.5 -21.8 -1.5 -162 l0 -161 8 0 8 0 -0.3 154.2 c-0.2 116.6 0 155.2 0.9 158 l1.2 3.6 3.8 -2.5 c4.1 -2.7 5 -4.3 2.4 -4.3 -1.3 0 -1.5 -4.1 -1.5 -30.5 0 -26.4 0.2 -30.5 1.5 -30.5 0.8 0 1.5 -0.4 1.5 -1 0 -0.5 -0.7 -1 -1.6 -1 -1.4 0 -1.4 -0.1 0 -1.6 0.9 -0.8 1.6 -2.2 1.6 -3 0 -0.8 0.7 -1.4 1.5 -1.4 1 0 1.5 1 1.5 3.3 0 4.5 1.5 5.7 7.2 5.7 3.6 0 4.8 0.4 4.8 1.5 0 0.8 -0.7 1.5 -1.5 1.5 -1.4 0 -1.6 3.2 -1.5 25.8 l0.2 25.9 4.6 0 c2.6 0 4.1 -0.2 3.5 -0.4 -1 -0.4 -1.3 -6.3 -1.3 -25.3 0 -18.9 0.3 -25 1.3 -25.3 0.6 -0.3 0 -0.6 -1.5 -0.6 -5.6 -0.2 -2.4 -3.1 3.3 -3.1 1.7 0 3.9 -0.5 5 -1 1.8 -1 1.9 -2.4 1.9 -23.9 0 -19.2 -0.2 -23.1 -1.5 -24.1 -2 -1.6 -21.2 -1.7 -22.8 -0.1 -1.8 1.8 -4.7 1.3 -4.7 -0.9 0 -1.1 -0.7 -2 -1.5 -2 -1.3 0 -1.5 -4.1 -1.5 -30.5 0 -26.4 0.2 -30.5 1.5 -30.5 0.8 0 1.5 -0.7 1.5 -1.5 0 -1.7 3.5 -2.1 4.5 -0.5 1 1.6 22 1.3 23.4 -0.4 0.8 -0.9 1.1 -8.3 0.9 -24.7 l-0.3 -23.4 -4.2 -0.3 c-2.4 -0.2 -4.3 -0.7 -4.3 -1.3 0 -0.5 -2 -0.9 -4.5 -0.9 -2.5 0 -4.5 0.5 -4.5 1 0 0.6 -1.3 1 -2.9 1 -1.7 0 -3.3 0.5 -3.6 1 -0.3 0.6 -1.5 1 -2.7 1 -1.6 0 -1.9 -0.5 -1.6 -2.5 0.4 -1.9 0.1 -2.5 -1.3 -2.5 -1.8 0 -1.9 -1.7 -1.9 -41 l0 -41 7.5 0 7.5 0 0 38.4 c0 21.1 0.3 39.1 0.6 40 0.4 1.2 -0.4 1.6 -4.3 1.9 -2.6 0.2 0.6 0.3 7.2 0.3 6.6 0 9.8 -0.1 7.2 -0.3 -3.9 -0.3 -4.7 -0.7 -4.3 -1.9 0.3 -0.9 0.6 -18.9 0.6 -40 l0 -38.4 7.5 0 7.5 0 0 43.8 c0.1 24 0.1 94.2 0.1 156 -0.1 98.3 0.1 112.3 1.4 112.8 2.6 1 1.6 2.4 -1.6 2.4 -1.8 0 -5.6 -1.5 -8.9 -3.5 -3.2 -1.9 -6.2 -3.5 -6.8 -3.5 -0.6 0 -1.3 -0.6 -1.5 -1.2 -0.4 -0.9 -0.8 -1 -1.4 -0.2 -0.4 0.6 -3.7 2.6 -7.3 4.5 -3.6 1.9 -6.6 3.7 -6.8 4.2 -0.2 0.4 -1.6 0.7 -3.2 0.7 -1.8 0 -2.9 0.6 -3.2 1.8 -0.7 2.6 -14 10.2 -17.9 10.2 -3.2 0 -3.2 0 -1.3 -2.1z m50.7 -130.9 c1.9 -0.8 1.7 -1 -1.3 -0.9 -1.9 0.1 -4.1 0.1 -4.7 0 -1 -0.1 -1.3 -6.2 -1.3 -27.1 0 -23.6 0.2 -27 1.6 -27.8 1.2 -0.7 0.8 -0.9 -1.8 -1 -7.2 -0.3 -6.8 -2.1 -6.8 28.2 l0 27.3 -2.2 1.1 c-1.8 0.8 -0.6 1 6 1 4.6 0.1 9.3 -0.3 10.5 -0.8z"/>
  <path d="M419.3 425.5 c0 -2.2 0.2 -3 0.4 -1.7 0.2 1.2 0.2 3 0 4 -0.3 0.9 -0.5 -0.1 -0.4 -2.3z"/>
  <path d="M427 398.9 c-2.8 -0.4 -3.5 -0.7 -1.7 -0.7 1.5 -0.1 2.7 -0.6 2.7 -1.2 0 -0.6 6.5 -1 17.5 -1 11 0 17.5 0.4 17.5 1 0 0.6 2.3 1 5 1 2.8 0 5 -0.4 5 -1 0 -0.6 2.7 -1 6 -1 3.3 0 6 0.4 6 1 0 0.6 2.3 1 5 1 2.8 0 5 -0.4 5 -1 0 -0.6 2.7 -1 6 -1 3.3 0 6 0.4 6 1 0 0.6 1 1 2.2 1 1.2 0 1.9 0.3 1.6 0.6 -0.8 0.8 -78.3 1.1 -83.8 0.3z"/>
  <path d="M516 398.9 c-2.8 -0.4 -3.5 -0.7 -1.7 -0.7 1.5 -0.1 2.7 -0.6 2.7 -1.2 0 -0.6 6.5 -1 17.5 -1 11 0 17.5 0.4 17.5 1 0 0.6 2 1 4.5 1 2.5 0 4.5 -0.4 4.5 -1 0 -0.6 4.7 -1 12 -1 7.3 0 12 0.4 12 1 0 0.6 0.7 1 1.5 1 0.8 0 1.5 -0.4 1.5 -1 0 -0.5 2 -1 4.5 -1 3.3 0 4.5 0.4 4.5 1.5 0 0.8 -0.6 1.5 -1.2 1.6 -7.2 0.4 -76.4 0.3 -79.8 -0.2z"/>
  <path d="M420.7 393.3 c-1.1 -1 -0.8 -8.3 0.3 -8.3 0.6 0 1 -4.5 1 -11.5 0 -7 0.4 -11.5 1 -11.5 0.6 0 1 5.3 1 14 l0 14 6.5 0 c3.7 0 6.5 0.4 6.5 1 0 0.6 -1.8 1 -4 1 -2.2 0 -4 0.5 -4 1 0 1.1 -7.3 1.4 -8.3 0.3z"/>
  <path d="M443.7 393.3 c-1.1 -1.1 -0.8 -26.3 0.3 -26.3 0.6 0 1.1 -1 1.1 -2.2 0.3 -5.3 1.8 7.5 1.8 16 l0.1 9.2 9 0 c5.3 0 9 0.4 9 1 0 0.6 -0.7 1 -1.5 1 -0.8 0 -1.5 0.5 -1.5 1 0 1.1 -17.2 1.4 -18.3 0.3z"/>
  <path d="M473.4 388.8 c0.3 -2.9 0.6 -9.9 0.6 -15.5 0 -6.2 0.4 -10.3 1 -10.3 0.6 0 1 5.2 1 13.5 l0 13.5 9 0 c5.3 0 9 0.4 9 1 0 0.6 -0.9 1 -2 1 -1.1 0 -2 0.5 -2 1 0 0.6 -3.5 1 -8.6 1 l-8.7 0 0.7 -5.2z"/>
  <path d="M528.6 392.4 c-1.1 -3 -0.7 -13.2 0.7 -13.7 1 -0.4 1 -0.6 0 -0.6 -1 -0.1 -1.3 -2.6 -1.3 -9.1 l0 -9 3.5 0 c1.9 0 3.5 0.5 3.5 1 0 0.6 -0.8 1 -1.8 1 -1.7 0 -1.8 1.1 -1.8 14 l0 14 7.8 0 c4.5 0 7.8 0.4 7.8 1 0 0.6 -2.5 1 -5.5 1 -3 0 -5.5 0.5 -5.5 1 0 1.7 -6.7 1.2 -7.4 -0.6z"/>
  <path d="M555.7 378.8 c0.3 -8.4 0.9 -15.7 1.4 -16.3 0.5 -0.5 0.9 5.1 0.9 13.3 l0 14.2 9.5 0 c5.7 0 9.5 0.4 9.5 1 0 0.6 -0.9 1 -2 1 -1.1 0 -2 0.5 -2 1 0 0.6 -3.6 1 -8.9 1 l-8.9 0 0.5 -15.2z"/>
  <path d="M502 377.5 c0 -9 0.4 -14.5 1 -14.5 0.6 0 1 5.2 1 13.5 l0 13.5 8 0 c4.7 0 8 0.4 8 1 0 0.6 -3.7 1 -9 1 l-9 0 0 -14.5z"/>
  <path d="M425 376.9 l0 -12.2 3.6 0.6 c2 0.3 3.8 0.8 4 1 0.4 0.3 1.2 9.1 1.5 15.2 0.3 7.5 0.3 7.5 -4.6 7.5 l-4.5 0 0 -12.1z"/>
  <path d="M437.3 385 c0 -2.5 0.2 -3.5 0.4 -2.2 0.2 1.2 0.2 3.2 0 4.5 -0.2 1.2 -0.4 0.2 -0.4 -2.3z"/>
  <path d="M448 377.5 c0 -13 0 -13 9.1 -12.3 l4.4 0.3 0.3 11.8 0.3 11.7 -7.1 0 -7 0 0 -11.5z"/>
  <path d="M477 377.6 l0 -11.4 3.1 -0.7 c1.7 -0.4 4.6 -0.4 6.5 -0.1 l3.4 0.7 0 9.2 c0 5.1 0.3 10.2 0.6 11.5 0.6 2.1 0.4 2.2 -6.5 2.2 l-7.1 0 0 -11.4z"/>
  <path d="M505 377.5 l0 -11.4 3.4 -0.6 c1.8 -0.4 4.4 -0.5 5.7 -0.3 2.4 0.3 2.4 0.5 2.7 12.1 l0.3 11.7 -6.1 0 -6 0 0 -11.5z"/>
  <path d="M533 377.5 c0 -11.2 0 -11.5 2.4 -12.1 1.3 -0.3 3.7 -0.4 5.2 -0.2 l2.9 0.3 0.3 11.8 0.3 11.7 -5.6 0 -5.5 0 0 -11.5z"/>
  <path d="M559.2 377.3 l0.3 -11.8 6.8 -0.3 6.7 -0.3 0 9.8 c0 5.4 0.3 10.8 0.6 12.1 0.6 2.1 0.4 2.2 -7 2.2 l-7.7 0 0.3 -11.7z"/>
  <path d="M419 354.6 c0 -0.8 1.2 -1.7 2.7 -2.1 1.5 -0.3 2.3 -0.9 1.7 -1.3 -0.5 -0.4 -0.7 -14.3 -0.4 -36 l0.5 -35.4 2.5 -1.9 c1.4 -1.1 3.3 -2.7 4.3 -3.5 3.9 -3.2 10.1 -7.4 10.9 -7.4 0.4 0 0.8 2.7 0.8 6 0 3.3 0.3 6 0.6 6 0.3 0 1.8 -1 3.3 -2.2 2.3 -2.1 2.6 -3 2.5 -8.8 0 -7.1 0.2 -7.4 9.2 -14.7 5.4 -4.5 6.4 -4.3 6.1 1.4 -0.2 5.3 0.7 6.1 4.2 3.4 2.1 -1.6 2.5 -3 3 -8.9 l0.6 -6.9 6.7 -5.2 c3.7 -2.8 7 -5.1 7.3 -5.1 0.3 0 0.5 2.7 0.5 6 0 6.7 0.9 7.4 5 3.7 2.3 -2 2.5 -2.8 2.2 -8.9 -0.4 -6.5 -0.3 -6.8 3.2 -10.3 1.9 -1.9 3.9 -3.5 4.4 -3.5 0.5 0 2.3 -1.4 4.1 -3 l3.1 -3 0 6.6 c0 5.8 0.2 6.7 2.1 7.1 1.4 0.4 1.8 1.1 1.4 2.2 -0.4 0.9 -0.9 2.7 -1.1 4 -0.3 1.3 -0.9 3.2 -1.4 4.2 -0.6 1 -1 10.4 -1 20.9 0 15.3 0.3 19.4 1.4 20.6 1.6 1.6 7.6 1.9 7.6 0.4 0 -0.5 -0.4 -1 -1 -1 -0.6 0 -1 -11 -1 -31 0 -22.8 0.3 -31 1.2 -31 1.6 0 11.7 8 13.5 10.7 0.8 1.3 1.3 3 0.9 3.8 -0.3 0.9 -0.6 28.6 -0.6 61.8 l-0.1 60.2 13.8 0.1 c14.5 0.1 17.6 -0.3 16.7 -1.7 -0.6 -1.1 -0.5 -99.1 0.1 -99.7 0.5 -0.5 4.3 2.4 10.8 8 l3.8 3.3 0.2 44.3 0.2 44.2 -6.9 0 c-12.7 0 -5.7 1.4 8.2 1.7 7.5 0.1 14.3 0.2 15 0.3 0.6 0 1.2 0.7 1.2 1.5 0 1.1 -1.1 1.5 -4 1.5 -2.2 0 -4 -0.4 -4 -1 0 -0.5 -2.2 -1 -5 -1 -2.7 0 -5 0.5 -5 1 0 0.6 -6.5 1 -17.5 1 -11 0 -17.5 -0.4 -17.5 -1 0 -0.5 -0.9 -1 -2 -1 -1.1 0 -2 0.5 -2 1 0 0.6 -7.3 1 -20 1 -12.7 0 -20 -0.4 -20 -1 0 -0.5 -0.9 -1 -2 -1 -1.1 0 -2 0.5 -2 1.1 0 1.6 -21.5 0.8 -23.2 -0.9 -1.4 -1.4 -1.3 -1.4 22.4 -1.6 8 0 15 -0.4 15.4 -0.8 0.4 -0.5 -2.5 -0.8 -6.4 -0.8 l-7.2 0 0 -44 0 -43.9 -2.5 2.5 c-1.3 1.3 -2.9 3.3 -3.5 4.4 -0.6 1.2 -1 16.3 -1 41.4 l0 39.4 -7.1 0.4 c-4 0.2 -7.4 -0.1 -7.7 -0.7 -0.3 -0.5 -0.7 -14.9 -0.8 -31.8 -0.1 -16.9 -0.5 -31.1 -0.8 -31.4 -0.7 -0.8 -3.8 3.2 -4.8 6.2 -0.3 1.1 -0.6 14.5 -0.7 29.8 l-0.1 27.7 -6.6 0 c-3.9 0 -6.3 0.4 -5.9 1 0.3 0.5 1.8 0.7 3.3 0.5 1.5 -0.3 5 -0.1 7.7 0.4 2.8 0.5 4 0.9 2.8 1 -1.3 0 -2.3 0.6 -2.3 1.1 0 0.6 -8 1 -22 1 -18.1 0 -22 -0.2 -22 -1.4z m20.8 -3 c0.3 -0.3 -2.9 -0.6 -7.2 -0.6 -4.2 0 -7.5 0.3 -7.3 0.8 0.6 0.8 13.6 0.7 14.5 -0.2z m9.2 0.4 c0.8 -0.5 1.1 -1 0.5 -1 -0.6 0 -0.9 -3.9 -0.7 -10.5 0.3 -6.5 0 -10.5 -0.6 -10.5 -3.1 0 -7.7 16.7 -5.9 21.4 0.7 1.8 4.4 2.1 6.7 0.6z m66.4 -0.9 c-0.5 -0.3 -0.8 -8.4 -0.6 -17.8 l0.3 -17.3 3.5 -2.7 c2.2 -1.6 4.6 -4.9 6 -8.1 2.8 -6.4 3.1 -9.2 0.4 -4.1 -1.8 3.3 -5 6.9 -5 5.5 0 -0.4 0.7 -2.3 1.5 -4.3 2.9 -6.9 1.1 -13.6 -4.5 -17 -1.6 -0.9 -3 -2.3 -3 -3 0 -1.5 -0.9 -0.9 -7.7 5.5 -5 4.6 -5.5 7.8 -2.1 14.1 1.7 3.3 2.7 4.1 5 4.1 2.1 0 2.8 0.5 2.8 2 0 3 -3.3 2.5 -7.3 -1 -3.8 -3.3 -6 -4.1 -3.4 -1.2 1 1 1.5 2.1 1.2 2.4 -0.3 0.3 0.7 1.9 2.4 3.5 l2.9 3 0.4 17.9 c0.2 9.8 0.6 18.4 1 19 0.4 0.6 2.1 0.9 3.9 0.6 1.7 -0.2 2.7 -0.7 2.3 -1.1z m10.6 0.9 c0 -0.5 -2.1 -0.9 -4.7 -0.8 l-4.8 0.1 4.5 0.7 c2.5 0.4 4.6 0.8 4.8 0.8 0.1 0.1 0.2 -0.2 0.2 -0.8z m-82.1 -27.5 c1.7 -2.5 4.5 -8.3 6.3 -12.8 3 -7.9 8.4 -17.9 10 -18.5 0.4 -0.2 0.8 -1.5 0.8 -2.8 0 -3.2 3.9 -8.4 6.2 -8.4 2 0 13.3 -11.4 15.8 -15.9 2.2 -3.9 6.2 -8.1 7.7 -8.1 1.6 0 10 -12.8 12.2 -18.5 0.8 -2.2 1.9 -4.3 2.4 -4.6 0.5 -0.4 0.8 -1.2 0.6 -1.8 -0.6 -1.6 -8.9 6.2 -8.9 8.3 0 2.3 -5 7.6 -7.1 7.6 -2.2 0 -14.8 8.2 -14.9 9.7 0 1.6 -5.4 5.3 -7.7 5.3 -2.3 0 -14.3 9.7 -14.3 11.6 0 1.8 -5.9 8.4 -7.5 8.4 -1.7 0 -11.1 10.9 -12.6 14.6 -1.8 4.7 0.9 27.7 4.3 36.2 l1 2.7 1.3 -4.2 c0.7 -2.2 2.7 -6.2 4.4 -8.8z m84.1 -29.7 c0 -1.6 -0.3 -1.9 -1.1 -1.1 -0.6 0.6 -0.8 1.6 -0.5 2.2 1.1 1.7 1.6 1.3 1.6 -1.1z"/>
  <path d="M537.7 350.3 c-0.4 -0.3 -0.7 -26.7 -0.7 -58.5 0 -43.1 0.3 -57.8 1.2 -57.8 1.3 0 11.7 7.5 13.6 9.8 0.9 1.2 1.2 13.6 1.2 54.4 l0 52.8 -7.3 0 c-4.1 0 -7.7 -0.3 -8 -0.7z"/>
  <path d="M582.1 310.9 c-0.2 -32.4 0.1 -40 1.1 -39.7 1.6 0.5 2.5 19.4 2.7 55.6 0.1 23.1 0 24.2 -1.8 24.2 -1.8 0 -1.9 -1.4 -2 -40.1z"/>
 </g>
 <g fill="#ed5666">
  <path d="M435.6 340.8 c-4.5 -7.1 -8.3 -38.1 -5.6 -45.4 1.4 -3.5 10.8 -14.4 12.5 -14.4 1.7 0 7.7 -6.9 7 -8 -0.8 -1.2 12.6 -12 15 -12 2.3 0 7 -3.3 7 -4.9 0 -1.4 13.3 -10.1 15.4 -10.1 2 0 7.1 -5.3 7.1 -7.5 0 -3.4 10.6 -11.7 13.8 -10.8 1.5 0.4 1.9 1.3 1.7 4.9 0 2.5 -0.6 4.8 -1.1 5.2 -0.5 0.4 -1.7 2.5 -2.5 4.7 -2.2 5.7 -10.6 18.5 -12.2 18.5 -1.5 0 -6.3 5.1 -5.9 6.3 0.1 0.4 -0.3 0.7 -1 0.7 -0.6 0 -0.8 0.3 -0.5 0.6 0.4 0.4 -2.2 3.6 -5.6 7.1 -3.4 3.6 -6.6 7.1 -7 7.9 -0.4 0.8 -1.9 1.4 -3.1 1.4 -2.7 0 -5.9 4.2 -6.1 7.8 0 1.3 -0.5 2.6 -1.1 3 -2 1.4 -7.1 10.8 -10.2 18.9 -1.8 4.5 -4.5 10.1 -6.1 12.6 -3.7 5.4 -5.2 9.2 -4.5 11.2 0.4 0.8 0.1 1.5 -0.5 1.5 -0.6 0 -1.1 0.7 -1.1 1.5 0 2.3 -3.8 1.8 -5.4 -0.7z m2.7 -29.8 l0.5 -18.5 -2.5 2.9 c-2.5 2.9 -2.5 3.3 -2 14 0.4 9.5 2.7 23.7 3.3 21 0.1 -0.5 0.5 -9.2 0.7 -19.4z m19 -16.1 c3.6 -5.5 3.7 -5.7 3.7 -15.3 l0 -9.7 -3.1 2.2 c-5.5 3.9 -6.9 7.4 -6.9 16.9 0 8.8 0.8 13.7 1.9 12.3 0.4 -0.4 2.3 -3.3 4.4 -6.4z m26 -34.3 c0.4 -3.3 0.5 -6.1 0.3 -6.3 -0.2 -0.2 -2.4 0.9 -4.9 2.4 l-4.6 2.8 -0.1 7.4 0 7.4 4.3 -3.9 c3.9 -3.5 4.4 -4.5 5 -9.8z m15.6 -15.9 c1.1 -1.8 2.5 -4.6 3.1 -6.2 l1.1 -3 -3.5 3.8 c-2.2 2.2 -3.6 4.7 -3.6 6.2 0 3.3 0.4 3.2 2.9 -0.8z"/>
 </g>
 <g fill="#f1677e">
  <path d="M437.1 340.6 c-2.8 -3.4 -5.3 -16.6 -5.8 -30.6 l-0.5 -14.5 5.2 -6.3 c2.8 -3.4 5.4 -6.2 5.7 -6.2 0.3 0 0.2 12.4 -0.2 27.6 -0.5 18.9 -0.4 27.8 0.3 28.3 0.6 0.3 0 1.1 -1.3 1.8 -1.8 0.8 -2.7 0.8 -3.4 -0.1z"/>
  <path d="M448.2 299.5 c-0.3 -17.5 -0.1 -21.9 1.2 -24.2 1.4 -2.9 12 -12.3 13.7 -12.3 1 0 1.7 29.4 0.6 29.8 -0.4 0.2 -0.5 0.8 -0.1 1.3 0.3 0.5 0 0.9 -0.6 0.9 -1.6 0 -7.9 10.4 -10.6 17.8 -1.4 3.7 -2.9 7 -3.2 7.4 -0.4 0.4 -0.8 -8.9 -1 -20.7z"/>
  <path d="M470.8 271.3 c-0.2 -6.5 -0.2 -12.4 0 -13.1 0.4 -1.2 14.4 -11.2 15.7 -11.2 0.4 0 0.5 5.2 0.3 11.5 -0.2 7.4 -0.7 11.5 -1.4 11.5 -0.6 0 -3.9 2.9 -7.3 6.5 -3.5 3.6 -6.4 6.5 -6.6 6.5 -0.1 0 -0.5 -5.3 -0.7 -11.7z"/>
  <path d="M493 250.9 c0 -10.2 0.6 -11.9 6.2 -17.1 4.8 -4.3 7.7 -5.3 8.5 -3 0.4 0.9 1.1 2 1.6 2.3 1.3 0.9 -0.1 4.9 -1.8 4.9 -1.5 0 -2.8 2.7 -1.9 4.1 0.3 0.5 0 0.9 -0.6 0.9 -0.6 0 -0.8 0.5 -0.5 1 0.3 0.6 0.1 1 -0.5 1 -0.6 0 -0.8 0.5 -0.5 1 0.3 0.6 0.2 1 -0.4 1 -1 0 -7.2 9.6 -6.6 10.2 0.2 0.2 -0.5 0.9 -1.5 1.6 -1.9 1.2 -2 0.9 -2 -7.9z"/>
 </g>
 <g fill="#f3d8c8">
  <path d="M483 835.3 c0 -35.9 0.3 -48.2 1.2 -49.1 1.7 -1.7 54.9 -1.7 56.6 0 0.9 0.9 1.2 13.2 1.2 49.1 l0 47.9 -6.7 -0.7 c-8.9 -1 -38.1 -1 -46 0 l-6.3 0.7 0 -47.9z m52 -1.3 l0 -42 -22.2 0.2 -22.3 0.3 0 41.7 0 41.8 22.3 0 22.2 0 0 -42z"/>
  <path d="M361 858 c-1.3 -0.8 -1.5 -4.8 -1.4 -26.4 0.1 -18.9 0.5 -26 1.4 -27.1 1.7 -2.1 29.2 -2.2 30.9 -0.1 1.7 2 1.7 51.1 0.1 53.1 -1 1.2 -4.2 1.5 -15.4 1.5 -7.7 0 -14.8 -0.5 -15.6 -1z m25 -27 l0 -20 -9.5 0 -9.5 0 0 20 0 20 9.5 0 9.5 0 0 -20z"/>
  <path d="M632.9 857.3 c-1.1 -1.3 -1.4 -6.8 -1.4 -26.3 0 -19.5 0.3 -25 1.4 -26.3 1.1 -1.4 3.6 -1.7 15.6 -1.7 11.2 0 14.5 0.3 15.5 1.4 0.8 1.1 1.2 8.7 1.2 26.7 0.1 23.4 0 25.3 -1.7 26.6 -1.4 0.9 -5.7 1.3 -15.6 1.3 -11.5 0 -13.9 -0.3 -15 -1.7z m25.1 -26.3 l0 -20 -9.5 0 -9.5 0 0 20 0 20 9.5 0 9.5 0 0 -20z"/>
  <path d="M603.8 784.1 c-13.2 -7 -13.8 -7.4 -13.8 -10.1 0 -1.8 0.9 -2.9 3.3 -4 3.2 -1.5 7.5 -7.8 7.6 -11.4 0.1 -1.3 0.6 -1.6 1.9 -1.1 0.9 0.4 7 1 13.4 1.3 14.3 0.5 14.8 0.3 14.8 -7.9 0 -3.3 0.4 -5.9 1 -5.9 0.6 0 1 0.5 1 1 0 0.6 1.4 1 3 1 1.7 0 3 -0.4 3 -1 0 -0.6 9.3 -1 25.9 -1 l25.9 0 2.1 4.9 c1.1 2.7 2.1 5.7 2.1 6.6 0 0.9 0.5 2.6 1.1 3.7 1.3 2.4 3.1 23.3 2.3 26.1 -0.5 1.6 -3.5 1.7 -43.9 1.7 l-43.4 0 -7.3 -3.9z"/>
  <path d="M329 766.6 c0 -1.4 0.5 -2.8 1 -3.1 0.6 -0.3 1 -2.1 1 -4 0 -1.9 0.5 -3.7 1 -4 0.6 -0.3 1 -1.7 1 -3.1 0 -1.3 1 -3.5 2.2 -4.9 l2.2 -2.5 25.7 0 c17.6 0 26 0.3 26.5 1.1 0.3 0.6 1.8 0.9 3.1 0.6 2.5 -0.5 2.5 -0.4 1.9 4.7 -0.9 7.8 -0.8 7.8 13.8 7.3 11.8 -0.4 12.6 -0.3 12.6 1.4 0 1.1 -0.7 1.9 -1.5 1.9 -0.8 0 -1.5 0.4 -1.5 0.9 0 0.5 -1.9 2 -4.2 3.2 -4.3 2.4 -4.4 2.4 -44.5 2.7 l-40.3 0.3 0 -2.5z"/>
  <path d="M599.3 399.3 c-6.6 -0.4 -7.1 -0.6 -7.7 -2.8 -0.4 -1.4 -1.3 -2.5 -2.1 -2.5 -0.8 0 -1.5 -0.9 -1.5 -2 0 -1.8 0.7 -2 6.5 -2 l6.5 0 0 -14 c0 -13.3 -0.1 -14 -2 -14 -2.1 0 -2.6 -2.3 -1.4 -6.8 0.5 -1.8 1.3 -2.2 5 -2.2 l4.4 0 0 23.5 c0 12.9 -0.1 23.4 -0.2 23.3 -0.2 -0.1 -3.5 -0.4 -7.5 -0.5z"/>
 </g>
 <g fill="#fbebda">
  <path d="M380.6 857.5 c0.5 -1.1 2.1 -1.5 6.1 -1.5 7.4 0 6.6 2.2 -1 2.7 -4.7 0.3 -5.6 0.1 -5.1 -1.2z"/>
  <path d="M633.6 858.3 c-0.3 -0.4 -0.6 -1.2 -0.6 -1.8 0 -0.9 2.7 -1.1 10.7 -0.8 10.5 0.4 12.2 0.7 11 1.9 -0.8 0.8 -20.3 1.4 -21.1 0.7z"/>
  <path d="M656 857.4 c0 -0.9 1.2 -1.4 3.5 -1.4 3.2 0 5.1 1.8 2.3 2.1 -0.7 0.1 -2.3 0.3 -3.5 0.4 -1.4 0.1 -2.3 -0.3 -2.3 -1.1z"/>
  <path d="M359.8 855.5 c-0.9 -1.9 -0.9 -2.8 0 -3.7 0.9 -0.9 1.2 -0.7 1.2 1 0 1.5 0.8 2.4 2.5 2.8 3.2 0.8 3.2 2.4 0 2.4 -1.7 0 -2.9 -0.8 -3.7 -2.5z"/>
  <path d="M636 846.5 c0 -0.8 0.7 -1.5 1.5 -1.5 0.8 0 1.5 0.7 1.5 1.5 0 0.8 -0.7 1.5 -1.5 1.5 -0.8 0 -1.5 -0.7 -1.5 -1.5z"/>
  <path d="M360.3 836.5 c0 -2.2 0.2 -3 0.4 -1.7 0.2 1.2 0.2 3 0 4 -0.3 0.9 -0.5 -0.1 -0.4 -2.3z"/>
  <path d="M364 838 c0 -0.5 0.7 -1 1.5 -1 0.8 0 1.5 0.5 1.5 1 0 0.6 -0.7 1 -1.5 1 -0.8 0 -1.5 -0.4 -1.5 -1z"/>
  <path d="M636 831.5 c0 -6 0.3 -7.5 1.5 -7.5 1.2 0 1.5 1.5 1.5 7.5 0 6 -0.3 7.5 -1.5 7.5 -1.2 0 -1.5 -1.5 -1.5 -7.5z"/>
  <path d="M364 832 c0 -2.9 0.4 -4 1.5 -4 1.1 0 1.5 1.1 1.5 4 0 2.9 -0.4 4 -1.5 4 -1.1 0 -1.5 -1.1 -1.5 -4z"/>
  <path d="M636 816 c0 -3.8 0.4 -5 1.5 -5 1.1 0 1.5 1.2 1.5 5 0 3.8 -0.4 5 -1.5 5 -1.1 0 -1.5 -1.2 -1.5 -5z"/>
  <path d="M364 814 c0 -0.5 0.7 -1 1.5 -1 0.8 0 1.5 0.5 1.5 1 0 0.6 -0.7 1 -1.5 1 -0.8 0 -1.5 -0.4 -1.5 -1z"/>
  <path d="M503.8 791.3 c5.7 -0.2 14.7 -0.2 20 0 5.3 0.1 0.7 0.3 -10.3 0.3 -11 0 -15.4 -0.2 -9.7 -0.3z"/>
  <path d="M329 777 l0 -11 35.3 -0.1 c19.3 0 36.9 -0.3 39 -0.5 4.1 -0.5 10 -3.2 10.6 -4.9 0.2 -0.5 2 -1.5 4 -2.1 2 -0.6 12.4 -6.4 23.1 -12.9 51.6 -31.3 62.8 -37.9 66.8 -39.7 4 -1.8 4.6 -1.8 8.2 -0.4 2.1 0.8 9.1 4.7 15.7 8.7 6.5 4 17.9 10.9 25.3 15.4 7.4 4.5 19.6 11.9 27 16.5 7.4 4.6 16 9.6 19 11.2 3.9 1.9 4.8 2.8 3.3 2.8 -1.5 0 -2.3 0.6 -2.4 1.8 -0.1 3.2 -4.4 9.6 -7.4 11.2 -1.6 0.8 -3.2 1.6 -3.4 1.8 -0.3 0.1 0.1 0.8 0.7 1.4 2.6 2.6 0.9 2.7 -4 0.2 -5.8 -2.9 -30.6 -16.7 -54.3 -30.2 -14.3 -8.2 -15.3 -8.6 -22 -9 l-7 -0.3 -19.5 10.9 c-10.7 6 -29.6 16.7 -42 23.7 -12.4 7 -24.3 13.6 -26.5 14.6 -3.7 1.7 -7.5 1.9 -46.7 1.9 l-42.8 0 0 -11z"/>
  <path d="M613 787 c0 -0.5 0.9 -1 2 -1 1.1 0 2 0.5 2 1 0 0.6 -0.9 1 -2 1 -1.1 0 -2 -0.4 -2 -1z"/>
  <path d="M624.3 787.3 c2.6 -0.2 6.7 -0.2 9 0 2.3 0.2 0.2 0.3 -4.8 0.3 -4.9 0 -6.8 -0.1 -4.2 -0.3z"/>
  <path d="M642.3 787.3 c2.6 -0.2 6.7 -0.2 9 0 2.3 0.2 0.2 0.3 -4.8 0.3 -4.9 0 -6.8 -0.1 -4.2 -0.3z"/>
  <path d="M657.8 787.3 c1.2 -0.2 3 -0.2 4 0 0.9 0.3 -0.1 0.5 -2.3 0.4 -2.2 0 -3 -0.2 -1.7 -0.4z"/>
  <path d="M666 787 c0 -0.5 0.6 -1 1.4 -1 0.8 0 1.8 0.5 2.1 1 0.3 0.6 -0.3 1 -1.4 1 -1.2 0 -2.1 -0.4 -2.1 -1z"/>
  <path d="M676.5 786.9 c1.8 -0.5 4.3 -0.5 6 0 2.5 0.8 2 0.9 -3 0.9 -5.1 0 -5.5 -0.1 -3 -0.9z"/>
  <path d="M687.1 786.5 c1.1 -1.1 2.7 -1.4 6.2 -0.9 6.7 0.9 5.8 2.4 -1.5 2.4 -5.6 0 -6.1 -0.2 -4.7 -1.5z"/>
  <path d="M603 783.5 c-0.7 -0.9 -1 -1.8 -0.7 -2.2 0.4 -0.3 0.9 0.1 1.3 1 0.3 0.9 1.2 1.3 2 1 0.8 -0.3 1.4 0 1.4 0.6 0 1.6 -2.6 1.3 -4 -0.4z"/>
  <path d="M499 652.3 c-0.8 -0.3 -1.8 -1.1 -2.2 -1.7 -1.4 -2 -0.9 -51.1 0.4 -52.4 1.7 -1.7 27.9 -1.7 29.6 0 0.9 0.9 1.2 8.3 1.2 27 0 24.4 -0.1 25.8 -1.9 26.8 -2 1 -24.4 1.3 -27.1 0.3z m21.8 -27.5 l0.2 -19.7 -8.6 -0.3 c-4.7 -0.2 -8.8 -0.1 -9 0.1 -0.2 0.2 -0.4 9.4 -0.4 20.3 l0 19.9 8.8 -0.3 8.7 -0.3 0.3 -19.7z"/>
  <path d="M497.2 537.8 c-0.9 -0.9 -1.2 -8.3 -1.2 -26.9 0 -24.7 0.1 -25.8 2 -27.2 2.3 -1.6 23.9 -2.1 27.7 -0.6 l2.3 0.9 0 26.3 c0 19.1 -0.3 26.6 -1.2 27.5 -1.7 1.7 -27.9 1.7 -29.6 0z m23.6 -27.1 l0.2 -20.7 -9 0 -9 0 0 20.3 c0 11.2 0.2 20.6 0.4 20.8 0.2 0.2 4.2 0.4 8.8 0.3 l8.3 -0.1 0.3 -20.6z"/>
  <path d="M512.8 399.2 l-93.7 -0.2 -0.3 -4.8 c-0.2 -2.6 -0.2 -12.9 0 -22.9 l0.3 -18.3 94.2 0.2 c51.8 0 92.8 0.3 91.1 0.5 -2.8 0.4 -3.2 0.9 -3.8 4.4 l-0.6 3.9 -6.5 0 -6.5 0 0 14.3 c0 13 0.2 14.4 1.8 14.4 9.4 -0.1 14.7 0.9 8 1.5 -1.8 0.2 -2.4 0.7 -2.1 1.9 0.4 1.2 1.9 1.8 5.9 2.1 5.5 0.5 6.9 1 6.3 2.5 -0.2 0.4 -42.6 0.7 -94.1 0.5z m-80.7 -9.2 l4.9 0 0 -14 0 -14 -6.4 0 -6.5 0 -0.3 13.8 c-0.2 7.5 -0.1 14.1 0.1 14.5 0.1 0.5 1 0.6 1.8 0.3 0.8 -0.3 3.7 -0.6 6.4 -0.6z m33.7 -0.4 c0.1 -0.3 0.2 -6.7 0.2 -14.1 l0 -13.6 -9.7 0.3 -9.8 0.3 -0.3 12.9 c-0.1 7.2 -0.1 13.5 0.2 14.1 0.4 1.2 18.9 1.3 19.4 0.1z m24.5 0.6 l3.7 -0.2 0 -14 0 -14 -9 0 -9 0 0 14.3 0 14.2 5.3 0 c2.8 -0.1 6.9 -0.2 9 -0.3z m57.7 -14.3 l0 -13.9 -8.5 0 -8.5 0 0 13.8 c0 7.6 0.2 14.1 0.4 14.3 0.2 0.2 4.1 0.3 8.5 0.1 l8.1 -0.4 0 -13.9z m25.8 14.2 l3.2 -0.1 0 -14 0 -14 -9.5 0 -9.5 0 0 14.6 0 14.5 6.3 -0.5 c3.4 -0.3 7.7 -0.5 9.5 -0.5z m-51.8 -14.1 l0 -14 -9 0 -9 0 0 14 0 14 9 0 9 0 0 -14z"/>
  <path d="M601.4 376 c0 -7.4 0.1 -10.5 0.3 -6.7 0.2 3.7 0.2 9.7 0 13.5 -0.2 3.7 -0.3 0.6 -0.3 -6.8z"/>
  <path d="M507.5 309 c-1.1 -0.4 -3.6 -2.4 -5.4 -4.4 -3.1 -3.2 -3.5 -4.2 -3.5 -9 -0.1 -6.1 1.8 -9.5 7.4 -13.3 6.1 -4.2 15.1 -1.8 18.5 4.7 2.3 4.4 1.9 12.1 -0.7 16 -3.9 5.6 -11 8.3 -16.3 6z"/>
 </g>
</svg>